<svg xmlns="http://www.w3.org/2000/svg" xml:space="preserve" style="fill-rule:evenodd;clip-rule:evenodd;stroke-linejoin:round;stroke-miterlimit:2" viewBox="0 0 715 166"><path d="M1.318-.432c.015 0 .027.003.034.01s.01.015.01.026c0 .017-.005.033-.015.046-.011.013-.027.02-.049.021a.62.62 0 0 1-.142-.012c-.047.099-.103.182-.168.247Q.889.005.793.005C.734.005.69-.026.661-.089.632-.151.615-.234.611-.339c-.04.116-.085.202-.135.259C.425-.023.372.005.315.005c-.064 0-.112-.04-.145-.12C.137-.194.121-.301.121-.436c0-.098.009-.206.026-.323.005-.033.013-.057.026-.07.012-.012.031-.019.058-.019.02 0 .036.004.047.013s.016.025.016.048c0 .005-.001.014-.002.027-.02.137-.03.253-.03.349 0 .089.008.158.023.207s.036.073.062.073c.023 0 .052-.025.085-.074.032-.049.065-.121.098-.218.033-.096.06-.211.083-.344.005-.031.015-.052.03-.064.014-.011.033-.017.058-.017.021 0 .036.004.046.013.009.009.014.023.014.041 0 .011-.001.019-.002.025C.74-.66.731-.552.731-.443c0 .074.002.133.008.177.005.044.014.077.029.1a.067.067 0 0 0 .062.035c.032 0 .068-.024.107-.073q.0585-.072.108-.18a.243.243 0 0 1-.092-.099C.932-.523.922-.569.922-.622S.93-.719.947-.756c.016-.036.038-.063.067-.081a.17.17 0 0 1 .094-.027c.043 0 .076.015.102.046.025.031.037.073.037.126 0 .075-.016.159-.049.251q.051.009.12.009m-.295-.197c0 .065.021.114.063.145.026-.075.039-.136.039-.185 0-.028-.004-.048-.011-.062-.007-.013-.017-.019-.03-.019-.018 0-.033.01-.044.031s-.017.051-.017.09" style="fill:#fff;fill-rule:nonzero" transform="translate(116.797 160.2394)scale(167.08155)"/><path d="M.558-.307c.009 0 .015.004.02.013s.007.02.007.033c0 .032-.01.051-.029.057a.46.46 0 0 1-.132.024c-.013.056-.038.101-.075.134a.184.184 0 0 1-.127.051c-.04 0-.074-.01-.102-.029a.18.18 0 0 1-.065-.077.24.24 0 0 1-.022-.104c0-.051.01-.096.029-.136a.234.234 0 0 1 .08-.093.205.205 0 0 1 .113-.033c.051 0 .092.017.123.052s.049.079.054.13a.64.64 0 0 0 .112-.02c.005-.001.01-.002.014-.002M.23-.101c.021 0 .04-.009.056-.026.015-.017.026-.042.031-.075A.13.13 0 0 1 .27-.257a.166.166 0 0 1-.014-.104H.251c-.027 0-.049.013-.066.038-.018.026-.027.062-.027.109 0 .037.007.065.022.084.014.019.031.029.05.029" style="fill:#fff;fill-rule:nonzero" transform="translate(320.1351 160.2394)scale(167.08155)"/><path d="M.119.005c-.025 0-.043-.013-.053-.04C.055-.062.05-.104.05-.163c0-.087.012-.169.037-.247a.077.077 0 0 1 .03-.043C.13-.462.149-.466.174-.466c.013 0 .023.002.028.005s.008.01.008.019q0 .0165-.015.072c-.007.027-.012.05-.016.069a.8.8 0 0 0-.01.074c.018-.052.04-.096.065-.132s.05-.063.077-.081c.026-.017.051-.026.074-.026s.04.005.05.016c.009.011.014.027.014.049 0 .021-.006.06-.019.116-.005.024-.009.042-.011.054.033-.082.07-.142.111-.179s.079-.056.114-.056c.043 0 .065.022.065.065 0 .026-.007.073-.022.141-.013.058-.019.096-.019.115 0 .027.01.04.029.04.013 0 .029-.008.048-.025a.8.8 0 0 0 .073-.079c.008-.009.017-.014.027-.014q.0135 0 .021.012c.004.008.007.019.007.033 0 .027-.006.047-.019.062a.47.47 0 0 1-.092.087.193.193 0 0 1-.113.034c-.034 0-.06-.01-.077-.03C.555-.044.546-.073.546-.11c0-.019.005-.052.014-.1.009-.042.013-.071.013-.087 0-.011-.004-.016-.011-.016-.009 0-.021.011-.037.033a.5.5 0 0 0-.048.089.7.7 0 0 0-.039.116c-.007.032-.016.053-.025.064C.403 0 .387.005.366.005.344.005.328-.006.317-.027A.16.16 0 0 1 .3-.103c0-.025.003-.062.01-.11.005-.043.008-.071.008-.084 0-.011-.004-.016-.011-.016-.01 0-.023.012-.038.036a.53.53 0 0 0-.044.092.8.8 0 0 0-.035.11c-.007.031-.016.052-.025.063C.155 0 .14.005.119.005" style="fill:#fff;fill-rule:nonzero" transform="translate(395.489 160.2394)scale(167.08155)"/><path d="M.58-.307c.009 0 .015.004.02.013s.007.02.007.033c0 .017-.002.029-.007.038a.038.038 0 0 1-.022.019.46.46 0 0 1-.132.024c-.013.055-.039.1-.075.134C.333-.012.293.005.248.005.181.005.132-.021.101-.072S.055-.198.055-.295c0-.086.011-.179.032-.281.021-.101.052-.187.094-.258C.222-.905.27-.94.327-.94c.031 0 .055.013.074.039.019.027.028.061.028.103 0 .055-.01.109-.031.163s-.055.111-.103.17c.045.003.081.022.109.055.028.034.045.076.05.125a.64.64 0 0 0 .112-.02.06.06 0 0 1 .014-.002M.304-.841c-.013 0-.028.02-.043.059-.016.04-.031.094-.044.162s-.023.142-.03.223c.044-.081.079-.152.106-.214.026-.061.039-.116.039-.164 0-.021-.002-.038-.007-.049S.313-.841.304-.841m-.052.74c.021 0 .039-.009.055-.026s.027-.042.032-.075a.13.13 0 0 1-.047-.055.166.166 0 0 1-.013-.11H.276c-.027 0-.05.013-.068.04C.189-.3.18-.263.18-.218c0 .038.007.067.022.087.014.02.031.03.05.03" style="fill:#fff;fill-rule:nonzero" transform="translate(519.7982 160.2394)scale(167.08155)"/><path d="M.179-.532c-.028 0-.049-.007-.063-.02Q.095-.5715.095-.606c0-.023.009-.043.028-.059a.104.104 0 0 1 .068-.023q.0375 0 .06.018a.062.062 0 0 1 .023.051c0 .027-.009.048-.026.063q-.0255.024-.069.024M.171.005C.128.005.096-.01.077-.041c-.02-.031-.03-.071-.03-.122 0-.03.004-.069.012-.116.007-.047.017-.09.029-.131.006-.021.014-.036.024-.044Q.127-.466.16-.466c.034 0 .051.011.051.034 0 .017-.006.055-.019.116-.016.073-.024.123-.024.149 0 .02.003.035.008.046s.014.016.027.016c.012 0 .027-.008.045-.025A1 1 0 0 0 .32-.209c.008-.009.017-.014.027-.014q.0135 0 .021.012c.005.008.007.019.007.033 0 .027-.006.047-.019.062C.29-.035.228.005.171.005" style="fill:#fff;fill-rule:nonzero" transform="translate(598.8272 160.2394)scale(167.08155)"/><path d="M.406-.193q.0135 0 .021.012c.005.008.007.019.007.033 0 .024-.006.045-.017.062a.196.196 0 0 1-.073.067C.313-.003.277.005.235.005.171.005.121-.014.086-.053.051-.091.033-.143.033-.208c0-.046.01-.089.029-.129a.23.23 0 0 1 .081-.094.203.203 0 0 1 .116-.035c.039 0 .07.011.093.034s.035.055.035.094c0 .046-.016.085-.049.118s-.09.06-.169.079c.016.031.043.046.081.046.027 0 .05-.006.068-.019a.35.35 0 0 0 .061-.064q.012-.015.027-.015M.242-.368c-.025 0-.045.014-.062.043s-.026.063-.026.104v.002q.0585-.0135.093-.042C.27-.28.281-.301.281-.326c0-.013-.003-.023-.01-.031a.04.04 0 0 0-.029-.011" style="fill:#fff;fill-rule:nonzero" transform="translate(639.9294 160.2394)scale(167.08155)"/><path d="M500 305.55c-.655 1.255-1.684 1.977-1.884 2.882-.379 1.708-.28 3.521-.789 5.024-.388-9.1-.366-17.935-.344-26.769.353 1.831.687 3.666 1.065 5.493.344 1.665.736 3.321 1.529 4.901.423 2.619.423 5.319.423 8.469" style="fill:#526877;fill-rule:nonzero" transform="translate(8.2893 1.2191)scale(.222)"/><path d="M476.999 114.025c.538 10.478-5.554 18.819-9.157 27.946-.41 1.041-2.347 1.48-4.77 2.896 3.002-7.992 5.439-14.477 7.875-20.962-5 1.105-5.873 5.357-6.674 8.644-2.491 10.219-8.496 18.121-15.306 25.59-.987 1.083-3.064 1.115-4.549 1.818-1.186.561-3.11 1.333-3.174 2.134-.146 1.832.07 4.401 1.233 5.413.975.848 4.438.631 5.186-.348 4.62-6.046 8.704-12.5 13.174-18.667.773-1.066 2.54-1.412 3.849-2.09.45.581.9 1.163 1.351 1.744-4.269 6.019-8.361 12.174-12.889 17.991-1.901 2.442-2.296 4.33-1.063 7.181 9.352 21.609 14.693 44.3 18.052 67.532.367 2.537 1.817 4.918 2.598 7.948 1.021 4.847 3.606 7.331 8.258 7.175 0 0 .024.014-.112.32.099 4.027 5.622 10.243 9.102 10.702.665 2.076 1.33 4.153 1.998 6.981.008 1.51.014 2.269-.165 3.148-.177.435-.168.75-.159 1.065.114-.396.228-.792.597-.928 1.163 1.927.064 5.148 3.698 4.703 0 0 .034.483-.234.976-.192 6.547-3.459 12.624-.07 18.69.406.726.319 2.112-.114 2.861-3.11 5.382-.945 10.518.518 15.703-1.022 4.332-2.045 8.663-3.402 13.34-.862-.758-1.39-1.863-1.918-2.968-.457.401-.914.801-1.371 1.202 0 1.883.575 5.15-.092 5.427-5.054 2.1-2.31 5.792-2.264 8.915-5.287 16.521-15.316 30.171-26.29 43.221-4.665 5.546-9.49 10.962-14.384 16.308-2.561 2.797-3.465 5.344-1.983 9.294 4.78 12.741 8.953 25.67 8.767 39.58-.034 2.557 1.207 5.131 1.494 8.315-.38 5.727-.581 10.847-.334 15.945.13 2.674 1.045 5.31 1.606 7.963 19.467 18.339 31.132 40.945 36.473 66.961.828 4.029 1.118 8.169 1.547 13.153-.043 9.989.025 19.084.092 28.178-2.157 23.411-10.968 43.836-27.518 60.687-7.669 7.808-7.51 7.539-2.009 17.226 3.743 6.593 7.124 13.502 9.699 20.62 3.342 9.237.261 17.984-7.398 22.044-2.926 1.551-6.593 1.985-9.982 2.307-3.96.375-7.984.071-12.717-.272-19.893-.43-39.049-.534-58.206-.584-.554-.002-1.109.561-1.664.86-3.947 1.755-7.841 3.641-11.854 5.229-4.448 1.76-9.005 3.249-14.355 4.826-3.977-.238-7.111-.585-10.249-.633-16.609-.256-33.218-.437-49.828-.644-2.774-1.907-5.529-3.842-8.33-5.708-1.567-1.045-3.211-1.975-5.479-3.272-2.458-.451-4.262-.746-6.056-.697-9.407.254-18.811.846-28.216.839-9.903-.008-19.803-.614-29.707-.817-1.705-.035-3.425.636-5.138.982 0 0 .007-.03-.224.055-.416.37-.602.655-.789.939 0 0-.48-.005-1.04-.038-3.812-.914-2.703 1.572-2.926 3.028 0 0-.007-.002-.333.143-1.771 1.049-3.217 1.954-4.662 2.859 0 0-.011-.002-.398-.057-3.997.314-7.603.957-11.216 1.001-11.29.139-22.583.067-33.875.031-1.297-.005-2.593-.298-3.89-.458l.03-1.29c3.215-.411 6.435-1.2 9.643-1.157 8.434.113 16.861.732 25.293.78 1.411.008 2.831-1.834 4.247-2.821-1.444-.676-2.869-1.887-4.334-1.937-6.303-.217-12.62.013-18.926-.145-2.548-.064-5.082-.704-7.264-1.281 10.433-.325 20.511-.368 30.584-.606 7.123-.168 9.711-2.752 10.793-10.496-.172-1.413-.427-2.498-.637-3.944-.338-1.448-.723-2.534-1.151-3.981-5.492-19.485-11.267-38.525-16.215-57.778-1.795-6.982-1.739-14.463-2.226-21.736-.094-1.392.944-3.789 1.956-4.099 1.387-.424 3.611.264 4.823 1.267 1.872 1.548 3.192 3.766 4.71 6.12 1.267 8.104 2.792 15.757 3.779 23.479.525 4.102 2.4 5.092 6.235 5.068 21.618-.134 43.242.223 64.853-.169 8.909-.161 17.803-1.677 26.672-2.818 1.374-.177 3.43-1.426 3.732-2.561 2.419-9.101 4.492-18.294 6.799-27.767 1.055-1.806 1.984-3.304 3.26-4.734.821.04 1.293.013 1.962.331.345 3.106.493 5.866.487 8.771-.319.441-.269.693-.114 1.339-.276 2.836-.441 5.237-.872 7.907-.312 1.787-.357 3.304-.48 5.182-.077 1.096-.077 1.832-.194 2.95-.128 1.446-.139 2.509-.237 3.974-1.455 7.556-2.401 14.824-4.285 21.84-3.004 11.185-6.632 22.203-10.265 33.462-.449.93-.63 1.691-.916 2.801-.183 1.074-.261 1.799-.44 2.75-.1.227-.071.722-.149 1.113-.028 1.18.022 1.97.045 3.145 1.133 5.955 3.752 8.462 9.467 8.511 15.598.136 31.203.259 46.797-.038 10.854-.206 19.668-4.979 26.567-13.806 2.676-2.194 5.192-4.129 7.369-6.391 11.907-12.372 19.011-27.627 25.193-43.293 10.335-26.194 17.837-53.265 23.574-80.81 7.265-34.881 10.535-70.062 7.256-106.048-.024-1.11-.122-1.851-.182-2.986-.049-1.443-.136-2.491-.105-3.861-.121-1.143-.359-1.965-.615-3.196-.607-3.558-1.196-6.708-1.807-10.263-1.495-9.68-3.712-18.73-7.557-28.027-53.93 41.886-114.854 58.889-181.477 58.668-66.666-.22-127.745-17.439-182.553-59.118-2.456 11.517-4.655 21.829-6.957 32.534-.73 5.131-1.357 9.869-2.201 14.814-.205.78-.193 1.354-.267 2.236-.087.735-.088 1.16-.173 1.836-.043.421-.003.592-.014 1.096-.033.782-.015 1.23-.102 2.063-.076 1.448-.047 2.509-.101 4.03-1.835 24.763-.642 48.911 2.664 73.066 5.58 40.776 17.677 79.491 36.253 116.093 5.738 11.306 13.502 21.583 20.413 32.655 8.889 13.226 21.113 19.663 36.487 19.937-4.918.835-9.59 1.394-14.106 1.933-.276 1.666-.586 3.537-.778 4.697-3.022-.733-5.277-1.238-7.506-1.837-1.04-.28-2.762-.543-2.931-1.156-1.457-5.296-5.691-4.615-10.027-4.789-3.434-.198-6.425-.359-9.507-.781-1.027-.085-1.964.093-3.272.36-1.127.03-1.883-.028-2.749-.384-2.568-2.356-4.971-3.792-7.346.395-14.799.196-29.14.296-43.481.396-.172.002-.344.005-1.007-.242-1.676.237-2.861.724-4.046 1.211-4.906-.337-9.905-.226-14.673-1.222-2.016-.42-5.088-3.213-5.039-4.85.262-8.809 1.354-17.595 2.701-26.554 3.912-2.752 7.332-5.313 5.999-10.406l9.84-10.874c-2.986-2.709-5.841-5.653-9.048-8.143-10.266-7.973-16.584-18.839-21.664-30.349-6.433-14.578-9.691-30.045-9.089-46.033.947-25.186 7.955-48.722 21.175-70.19 5.205-8.453 11.948-15.968 17.016-24.49 2.189-3.68 1.979-8.818 2.738-13.313 2.478-14.67 4.897-29.35 7.355-44.024.137-.814.265-1.69.657-2.392 7.404-13.25-1.988-20.814-9.559-29.3-17.547-19.664-31.169-41.691-37.666-67.473-3.111-12.341-4.799-24.994-1.678-37.984 1.031-3.301 1.471-6.402 1.91-9.503 0 0-.004-.413.326-.772 1.328-.907 3.225-1.878 3.194-1.945-2.039-4.348 2.507-5.794 3.93-8.421 2.734-5.046 6.546-9.495 9.592-14.39 1.384-2.224 2.008-4.921 2.977-7.403 0 0-.011-.458.366-.79.791-2.98 1.206-5.627 1.621-8.274-.117-3.554.697-6.1 5.124-6.108.962-.001 2.545-1.953 2.772-3.201.86-4.731 1.281-9.542 1.783-14.332.002-.016-1.216-.159-2.198-.597-.05-3.787.233-7.22.515-10.653 0 0 .018.002.328-.139 6.326-3.95 5.83-9.985 5.696-15.896 2.206-5.747 4.458-11.476 6.58-17.254.468-1.274.471-2.718.711-4.629.011-1.458.381-2.676-.069-3.235-4.103-5.1-8.333-10.098-12.599-15.064-.195-.228-1.075.132-1.636.218 0 0-.49-.001-.849-.214-.555-.49-.815-.672-1.141-.762 0 0-.015-.013-.024-.319-.336-.766-.663-1.227-.989-1.688 0 0 .01-.014-.106-.24-.379-.429-.641-.632-.904-.836 0 0-.007-.396.013-.983-.657-1.706-1.333-2.824-2.009-3.942 0 0 .017-.015.017-.398-.232-2.885-.465-5.387-.722-8.157-.918-.399-2.097-.912-3.276-1.425 0 0-.027-.022-.006-.463.126-2.351.483-4.296.226-6.156-.122-.88-1.42-1.598-2.185-2.39 0 0-.022-.482-.011-1.143 1.186-4.875-.405-8.969-.536-12.974-.403-12.436.87-24.932 1.65-37.395.198-3.176.204-6.744 1.659-9.38 2.582-4.675 2.751-9.344 2.169-14.305 0 0 .001-.384.231-.708.422-.608.615-.892.807-1.177 0 0-.006-.463.348-.777.782-1.636 1.208-2.957 1.635-4.278 5.265-12.665 12.805-23.394 26.606-27.516 9.202-2.748 18.215.216 27.079 2.964 20.663 6.407 37.735 18.335 52.194 34.125 5.234 5.715 9.808 12.033 14.798 18.219 1.806-.542 3.678-1.104 6.266-1.664 2.831-1.011 4.945-2.024 7.06-3.037 0 0 .01.018.392.037 4.247 1.619 7.531.304 10.616-2.018l.352-.005c1.287-.251 2.223-.496 3.603-.857-1.374-.997-2.158-1.566-2.943-2.135 12.22-2.996 24.39-6.225 36.682-8.885 5.873-1.27 11.981-1.46 18.87-2.035 9.796.052 18.704.001 27.611-.051 0 0 .361-.044.664.334 2.097.792 3.874 1.316 5.688 1.596 2.812.434 5.649.702 8.068 1.041-2.016-.001-3.623-.001-5.231-.001.051.426.103.851.155 1.277 1.826-.427 3.653-.855 5.885-1.29 2.15-.339 3.894-.669 5.639-1 .942.443 1.885.887 2.547 1.681-.877.634-1.472.917-2.068 1.201 1.958.916 3.663.807 5.364.654 1.467-.132 3.407-.994 4.315-.359 4.939 3.456 10.272 3.77 15.905 2.817 10.578.66 19.909 5.354 29.416 9.327 7.507 3.136 7.013 3.142 11.654-3.481 9.029-12.885 20.359-23.578 33.55-32.135 11.199-7.265 23.414-12.226 36.455-15.357 14.1-3.386 30.406 1.923 39.095 14.9 5.555 8.296 9.215 17.862 13.488 27.449-3.425 3.218.315 5.368.335 7.819.04 4.754.605 9.509 1.065 14.252.549 5.673 1.203 11.336 1.836 17.001.307 2.752.667 5.499.981 8.665-.342 4.479-.662 8.54-.982 12.602m-393.011 7.962s-.07-.027.424-.242c.158-.311.316-.623.487-.837 0 0-.084-.052.666.039 4.036-3.454 8.249-6.727 12.021-10.449 1.548-1.527 2.144-4.019 3.229-6.43.137-.238.342-.341 1.422-.224 4.513-.884 8.056-2.672 7.753-8.606 0 0 .398-.22.999-.37-.339-.954-.679-1.908-1.35-3.222-.166-.317-.162-.633.22-1.811.248-2.449.093-4.633-3.294-4.92 0 0 .053-.195.236-.982-1.652-2.304-3.305-4.608-5.153-7.047 0 0 .048-.232.18-1.049-1.097-1.216-2.193-2.432-3.648-3.799 0 0-.133-.366-.154-1.066-1.485-1.598-2.971-3.196-4.847-4.871-.257-.151-.376-.375-.333-1.423-.724-.467-1.447-.933-1.976-1.542 0 0-.155.185-.053-.586-1.356-.771-2.711-1.541-3.991-2.373 0 0 .018.095-.209-.463-.347-.175-.694-.351-1.408-.608 0 0-.192-.322-.316-.949-.702-.325-1.404-.649-2.024-1.023 0 0 .014.095-.201-.585-2.627-1.1-5.255-2.2-7.773-3.42 0 0-.051.154-.362-.451-.428-.08-.857-.159-1.721-.01-.35.039-.653-.062-.85-.994.043-.687.086-1.374.78-2.295.689-.043 1.379-.086 2.45.19l.485.098s.449-.212 1.169.007c1.715.393 3.43.786 5.557 1.763 2.984 1.128 5.968 2.255 9.468 3.441.413.297.825.594 1.273 1.605 1.329.805 2.657 1.61 3.888 2.492 0 0 .063-.108.114.583.713.377 1.426.754 2.124 1.218 0 0-.069-.054.141.523.362.165.724.33 1.386.543 0 0 .203.227.392.64.178.26.415.442 1.182.768.296.41.592.819.797 2.002 1.74 1.856 3.481 3.713 5.585 5.732.23.162.368.382.375 1.347.591.561 1.181 1.123 2.005 1.946 0 0 .048.347.001 1.128 1.22 1.544 2.44 3.089 3.934 4.883 0 0 .105.356.014 1.14.779 1.746 1.318 3.659 2.388 5.203 2.119 3.061 4.122 2.928 5.709-.917 0 0 .274.01 1.018.118.942-.901 1.884-1.802 3.079-2.95 0 0 .348-.06 1.046-.018.563-.613 1.125-1.227 2.057-2.27.683-.297 1.365-.594 2.794-.774.949-.898 1.898-1.796 3.083-2.936l.918-.129c.266-.273.533-.546 1.175-1.346 1.268-.785 2.536-1.57 4.494-2.561 1.691-2.759 2.265-5.283-1.766-7.202 0 0-.178-.396-.339-.927-.291-.215-.582-.43-.778-.635 0 0-.079.055-.06-.669-1.022-1.095-2.045-2.191-2.941-3.365 0 0-.093.116-.075-.592-.973-.814-1.947-1.628-3.364-2.657-.272-.213-.442-.488-.521-1.551-.989-.755-1.978-1.509-3.511-2.486-.495-.589-.991-1.178-1.575-2.413-.666-.431-1.332-.861-1.921-1.342 0 0-.051.075-.079-.635-1.737-1.41-3.474-2.819-5.798-4.376-1.08-.891-2.16-1.781-3.475-3.261-.366-.187-.732-.374-1.413-.625 0 0-.209-.243-.337-.9-1.337-.707-2.674-1.413-4.545-2.326-.439-.362-.877-.724-1.47-1.742-1.399-.663-2.798-1.325-4.566-2.037 0 0-.286-.239-.423-.902-4.6-2.16-9.2-4.32-14.373-6.438-.52-.212-1.039-.424-1.854-1.309-2.389-.736-4.778-1.471-7.651-2.103-.337.009-.658-.061-1.41-.766-2.176-.267-4.351-.534-7.412-.674-2.084-.037-4.168-.075-6.701-.544-1.161.607-2.322 1.213-3.724 1.954 0 0-.263-.084-.982-.17-.595.604-1.189 1.208-2.135 2.386-3.246 3.489-6.491 6.977-10.148 10.726-.191.432-.383.864-.842 1.801-.223.309-.445.619-1.355 1.064-2.35 6.126-4.701 12.251-6.959 19.007-.148.614-.296 1.227-1.045 1.948-.167.95-.334 1.9-.44 3.614-.14.748-.281 1.495-1.024 2.536-.714 4.885-1.428 9.77-1.998 15.594-.044 7.758-.088 15.517-.566 23.879 1.07 4.448 2.141 8.897 3.476 14.059.042.759.084 1.517-.34 2.76 1.649 3.846 3.297 7.692 5.333 12.021.138.385.277.77.327 1.932.83 1.197 1.659 2.393 2.922 4.065.418.962.836 1.925 1.319 3.52.311.263.622.525.861.733 0 0 .082-.038-.014.607.55.541 1.099 1.081 1.921 1.888 0 0 .088.37.048 1.046.581.561 1.162 1.121 2.133 2.065.281.462.563.924.856 2.068.646.498 1.291.997 1.89 1.524 0 0 .033-.045.097.691 1.142.686 2.283 1.371 3.982 1.913.731-.191 1.461-.381 2.855-.703.953-2.037 1.907-4.073 2.939-6.055 0 0-.089.035.465-.248.148-.376.296-.752.579-1.709.672-.971 1.344-1.941 2.481-3.123.192-.275.385-.549.652-1.328-.035-.166-.07-.333.295-.9.533-.519 1.066-1.039 2.331-1.688.349-.824.699-1.648 1.034-2.739 0 0 .243-.113.999-.198.661-1.191 1.321-2.381 1.932-3.776 0 0 .164-.132.687-.427.176-.35.352-.699.681-1.45 0 0 .376-.208 1.08-.229 4.053-.672 5.112-3.426 5.091-7.474.17-.267.406-.45 1.203-.757.192-.293.384-.586.606-.811m312.597-8.247c-.359-.179-.718-.357-1.406-.664 0 0-.137-.327-.254-.934-.484-.31-.969-.621-1.758-.963 0 0-.151-.265-.239-.892-.649-.427-1.298-.853-2.514-1.624-18.676-16.958-39.759-30.028-63.383-38.88C296.81 58.459 265.666 54.167 233.416 57c-28.222 2.479-54.933 9.808-79.959 23-33.762 17.796-60.33 43.428-80.411 75.719-15.163 24.381-25.543 50.686-30.211 79.163-1.45 8.848-1.283 18.362-9.219 25.022-2.482 2.083-4.277 5.079-6.088 7.853-12.166 18.631-13.162 38.534-6.614 59.99 1.151 2.681 2.301 5.363 3.252 8.79 1.046 2.973 1.868 6.048 3.172 8.903 15.425 33.767 40.155 59.223 71.229 78.784 28.186 17.744 58.871 29.126 91.632 35.141 28.952 5.316 58.049 7.117 87.4 4.787 32.888-2.612 64.691-9.629 94.966-23.048 38.819-17.205 70.852-42.575 93.969-78.473 5.899-9.159 11.509-18.669 13.413-30.501 1.145-3.313 2.29-6.627 3.814-10.604.445-2.114 1.003-4.211 1.316-6.344 2.01-13.671 2.213-27.152-4.014-40.025-3.787-7.828-9.421-14.015-16.358-19.104-3.962-2.906-5.656-6.45-6.156-11.652-1.879-19.558-5.965-38.705-13.248-57.063-9.728-24.52-23.889-46.224-41.624-66.337-.509-.343-1.017-.685-1.817-1.239 0 0-.049-.357.008-1.113-1.042-.811-2.084-1.621-2.959-2.548 0 0-.129.158-.09-.56-.711-.411-1.423-.823-2.052-1.332 0 0 0 .128-.182-.469m26.241-58.067c-1.295.701-2.591 1.402-4.449 2.451-1.362 1.029-2.723 2.059-4.776 3.006-.893.9-1.786 1.801-3.055 3.163-.746.646-1.492 1.291-2.949 1.912-.457.701-.914 1.401-1.602 2.475-.186.234-.414.415-1.261.651-.161.335-.323.67-.659 1.341 0 0-.296.236-.968.342-.628 1.089-1.256 2.178-2.124 3.741-.325.418-.65.837-1.651 1.342-.378.723-.756 1.446-1.339 2.651-.3.43-.599.86-1.399 1.539-.128.334-.256.668-.547 1.35 0 0-.274.268-.924.433-1.711 2.934-3.655 5.762-5.065 8.835-1.346 2.934-.138 4.713 3.321 4.716 0 0 .061.059.026.602.27.22.54.439 1.109 1.245 7.36 7.158 15.09 13.981 21.971 21.573 6.269 6.916 11.617 14.665 17.424 22.75 3.355 5.42 6.709 10.84 10.423 16.843 1.804-2.331 3.157-3.977 4.4-5.701 10.658-14.78 16.563-31.324 18.448-49.398 2.666-25.562-2.259-49.229-16.976-70.646-6.491-9.445-15.207-12.425-26.046-9.967-27.437 6.221-48.426 21.902-64.864 44.29-1.872 2.551-1.486 3.939 1.107 5.509 5.544 3.359 11.008 6.857 16.405 10.449 5.499 3.66 5.307 3.656 8.678-2.045 11.36-19.211 26.029-32.988 50.246-29.714-.579.435-1.159.871-2.39 1.491-.45.024-.899.049-1.734-.408-1.607.456-3.213.912-5.449 1.404-.777.569-1.555 1.139-2.474 1.842 0 0-.195-.018-.857-.067M21.044 603.718c4.458 19.207 14.727 34.521 29.296 47.857 9.439 8.641 19.634 7.058 31.281 7.189-4.281-9.474-8.2-18.147-12.238-27.599-14.344-41.031-22.222-83.249-23.455-127.34-1.351.577-1.731 1.653-2.349 2.569-10.326 15.319-18.245 31.853-22.064 49.882-2.174 10.268-1.979 21.037-3.175 32.119.223.536.447 1.073.641 2.473.747 4.02 1.494 8.04 2.063 12.85m452.814 19.04c6.338-12.073 8.264-25.209 8.904-38.558 1.38-28.765-8.027-54.258-24.159-77.609-.392-.568-1.149-.883-2.13-1.608-.57 7.524-1.165 14.421-1.604 21.329-1.665 26.186-7.259 51.651-14.035 76.9-2.479 9.239-4.999 18.466-8.023 28.265-2.44 6.513-5.018 12.98-7.194 19.58-.398 1.207.448 3.912 1.39 4.3 8.141 3.357 16.488 4.588 24.128-1.1 10.654-7.933 17.806-18.527 22.723-31.499M256.5 706.172c7.975-.297 15.948-.723 23.925-.827 3.095-.04 4.341-1.424 5.216-4.166 3.081-9.662 6.413-19.244 9.555-28.888 1.143-3.509 2.019-7.106 3.165-11.189-3.619 0-6.255-.137-8.871.025-8.789.546-17.564 1.592-26.356 1.728-17.322.267-34.652.04-51.978.043-6.509.001-6.608.093-4.785 6.033 3.317 10.808 6.958 21.524 9.96 32.417 1.019 3.697 2.639 4.709 6.185 4.676 10.993-.101 21.989.078 33.984.148m204.149-16.212c-2.593-5.009-4.871-10.222-7.916-14.939-1.443-2.235-4.14-4.515-6.638-5.05-7.079-1.518-14.435-1.751-21.511-3.28-3.981-.861-5.464.347-7.342 3.58-6.397 11.016-13.233 21.776-19.876 32.65-.459.75-.708 1.629-1.049 2.435.649.313.941.576 1.232.576 18.264-.023 36.537.276 54.788-.219 14.076-.382 13.004-3.673 8.312-15.753M48.542 705.168h58.52c-.467-1.645-.514-2.335-.834-2.858-5.38-8.773-10.778-17.536-16.23-26.265-.5-.801-1.284-1.582-2.122-1.991-20.844-10.173-45.454-.58-48.544 21.75-1.235 8.922-1.256 9.365 9.21 9.364m426.999-598.2c-.156.665-.311 1.331-.467 1.997.236.034.471.067.706.101.029-.583.057-1.166-.239-2.098M10.812 283.098c-.217.046-.435.091-.653.137.078.279.156.558.235.836.166-.19.333-.38.418-.973m18.489-157.253c.078-.048.156-.097 0 0m3.398-78.691c-.078.049-.156.097 0 0" style="fill:#0d0a07;fill-rule:nonzero" transform="translate(8.2893 1.2191)scale(.222)"/><path d="M163.964 717.869c2.54.378 5.074 1.018 7.622 1.082 6.306.158 12.623-.072 18.926.145 1.465.05 2.89 1.261 4.334 1.937-1.416.987-2.836 2.829-4.247 2.821-8.432-.048-16.859-.667-25.293-.78-3.208-.043-6.428.746-9.643 1.157l-.03 1.29c1.297.16 2.593.453 3.89.458 11.292.036 22.585.108 33.875-.031 3.613-.044 7.219-.687 11.215-.995-.77 1.023-1.814 2.599-3.103 2.833-3.815.696-7.727.861-12.301.892-10.941-.463-21.182-.583-31.424-.703-4.007.007-8.029-.213-12.017.068-7.953.559-14.544-2.622-20.838-6.926-1.433-.98-3.063-1.672-4.795-3.041-.193-.543-.28-1.009-.28-1.009 3.893.137 8.127-.544 9.584 4.752.169.613 1.891.876 2.931 1.156 2.229.599 4.484 1.104 7.506 1.837.192-1.16.502-3.031.778-4.697 4.516-.539 9.188-1.098 14.553-1.979 3.381-.305 6.069-.286 8.757-.267" style="fill:#0c0a0d;fill-rule:nonzero" transform="translate(8.2893 1.2191)scale(.222)"/><path d="M30.702 45.076c.848 4.715.679 9.384-1.903 14.059-1.455 2.636-1.461 6.204-1.659 9.38-.78 12.463-2.053 24.959-1.65 37.395.131 4.005 1.722 8.099.528 12.733-1.026-2.981-2.501-6.32-2.961-9.794-2.21-16.667-1.492-33.213 3.024-49.483 1.31-4.72 2.896-9.364 4.621-14.29" style="fill:#0f181c;fill-rule:nonzero" transform="translate(8.2893 1.2191)scale(.222)"/><path d="M478.003 101.006c-.336-2.749-.696-5.496-1.003-8.248-.633-5.665-1.287-11.328-1.836-17.001-.46-4.743-1.025-9.498-1.065-14.252-.02-2.451-3.76-4.601-.306-7.447 5.252 12.59 6.298 25.984 6.192 39.551-.017 2.153-.003 4.306-.334 6.926-.77.468-1.209.47-1.648.471" style="fill:#0d1319;fill-rule:nonzero" transform="translate(8.2893 1.2191)scale(.222)"/><path d="M298.074 727.1c16.448-.202 33.057-.021 49.666.235 3.138.048 6.272.395 9.827.635-.917.369-2.251.994-3.589 1.002-14.882.081-29.765.167-44.646.007-3.703-.039-7.398-.957-11.258-1.879" style="fill:#325b6f;fill-rule:nonzero" transform="translate(8.2893 1.2191)scale(.222)"/><path d="M215.441 718.023c1.258-.351 2.978-1.022 4.683-.987 9.904.203 19.804.809 29.707.817 9.405.007 18.809-.585 28.216-.839 1.794-.049 3.598.246 5.689.689-22.419.312-45.129.318-68.295.32" style="fill:#112d3d;fill-rule:nonzero" transform="translate(8.2893 1.2191)scale(.222)"/><path d="M28.694 248.112c-.665 2.324-1.289 5.021-2.673 7.245-3.046 4.895-6.858 9.344-9.592 14.39-1.423 2.627-5.969 4.073-3.93 8.421.031.067-1.866 1.038-3.193 1.739 2.778-12.499 10.412-22.385 19.388-31.795" style="fill:#10161a;fill-rule:nonzero" transform="translate(8.2893 1.2191)scale(.222)"/><path d="M496.302 319.957c-1.713-4.951-3.878-10.087-.768-15.469.433-.749.52-2.135.114-2.861-3.389-6.066-.122-12.143.088-18.449.619.783.953 1.818 1.267 3.181-.042 9.162-.064 17.997-.042 27.31-.107 2.337-.258 4.195-.659 6.288m-.862-27.47s.081-.043 0 0" style="fill:#18181e;fill-rule:nonzero" transform="translate(8.2893 1.2191)scale(.222)"/><path d="M37.993 148.25c.56-.336 1.44-.696 1.635-.468 4.266 4.966 8.496 9.964 12.599 15.064.45.559.08 1.777-.066 2.925-4.4-4.202-8.644-8.64-13.034-13.723-.474-1.447-.802-2.249-1.13-3.05 0 0-.002-.499-.004-.748" style="fill:#0d141a;fill-rule:nonzero" transform="translate(8.2893 1.2191)scale(.222)"/><path d="M119.412 717.03c.443.037.53.503.557.738-19.955.232-39.937.239-59.919.211-2.154-.003-4.307-.211-6.727-.644 14.075-.419 28.416-.519 43.642-.602 2.934-.059 4.982-.134 7.03-.21.755.058 1.511.116 3.004.196 1.491-.055 2.244-.132 2.996-.208 2.992.16 5.983.321 9.417.519" style="fill:#375a6c;fill-rule:nonzero" transform="translate(8.2893 1.2191)scale(.222)"/><path d="M384.651 717.93c.102-.316.657-.879 1.211-.877 19.157.05 38.313.154 57.729.567-19.323.319-38.905.323-58.94.31" style="fill:#325366;fill-rule:nonzero" transform="translate(8.2893 1.2191)scale(.222)"/><path d="M309.854 52.703c-5.381 1.233-10.714.919-15.653-2.537-.908-.635-2.848.227-4.315.359-1.701.153-3.406.262-5.364-.654.596-.284 1.191-.567 2.134-.869 8.409-2.347 15.49 1.771 23.198 3.701" style="fill:#0d1619;fill-rule:nonzero" transform="translate(8.2893 1.2191)scale(.222)"/><path d="M38.69 204.223c.009 3.209-.274 6.642-.623 10.425-.405 3.399-.743 6.447-1.48 9.918-1.444.415-2.491.408-3.538.401 1.783-6.84 3.566-13.68 5.641-20.744" style="fill:#0f151d;fill-rule:nonzero" transform="translate(8.2893 1.2191)scale(.222)"/><path d="M44.717 188.178c.422 5.697.918 11.732-5.419 15.683 1.497-5.062 3.314-10.265 5.419-15.683" style="fill:#122024;fill-rule:nonzero" transform="translate(8.2893 1.2191)scale(.222)"/><path d="M487.371 346.033c-.412-3.049-3.156-6.741 1.898-8.841.667-.277.092-3.544.092-5.427.457-.401.914-.801 1.371-1.202.528 1.105 1.056 2.21 1.907 3.385-1.417 4.051-3.16 8.031-5.268 12.085" style="fill:#111721;fill-rule:nonzero" transform="translate(8.2893 1.2191)scale(.222)"/><path d="M179.632 56.042c1.165.53 1.949 1.099 3.323 2.096-1.38.361-2.316.606-3.723.672-.787-.169-1.102-.159-1.418-.148.396.113.791.226 1.186.338-3.085 2.322-6.369 3.637-10.625 2.014 3.365-1.66 7.121-3.296 11.257-4.972" style="fill:#11181f;fill-rule:nonzero" transform="translate(8.2893 1.2191)scale(.222)"/><path d="M455.91 486.288c-.59-2.208-1.505-4.844-1.635-7.518-.247-5.098-.046-10.218.342-15.545.69 7.396 1.006 15.007 1.293 23.063" style="fill:#515e66;fill-rule:nonzero" transform="translate(8.2893 1.2191)scale(.222)"/><path d="M278.003 48.003c-2.827-.339-5.664-.607-8.476-1.041-1.814-.28-3.591-.804-5.507-1.608 6.318.268 12.758.926 19.61 1.609-1.332.357-3.076.687-5.225 1.028-.405.009-.402.012-.402.012" style="fill:#161f23;fill-rule:nonzero" transform="translate(8.2893 1.2191)scale(.222)"/><path d="M489.837 266.69c-3.334-.157-8.857-6.373-8.949-10.388 3.03 3.166 5.917 6.626 8.949 10.388" style="fill:#10161b;fill-rule:nonzero" transform="translate(8.2893 1.2191)scale(.222)"/><path d="M36.635 674.99c1.69 5.056-1.73 7.617-5.375 10.107 1.489-3.421 3.254-6.746 5.375-10.107" style="fill:#15181f;fill-rule:nonzero" transform="translate(8.2893 1.2191)scale(.222)"/><path d="M158.088 728.297c9.939-.202 20.18-.082 30.686.376-9.951.207-20.167.076-30.686-.376" style="fill:#1b435a;fill-rule:nonzero" transform="translate(8.2893 1.2191)scale(.222)"/><path d="M494.39 594.836c-.464-8.905-.532-18-.513-27.571.447.359 1.122 1.196 1.121 2.033-.007 8.45-.124 16.899-.608 25.538" style="fill:#6c8792;fill-rule:nonzero" transform="translate(8.2893 1.2191)scale(.222)"/><path d="M480.86 255.666c-4.519.46-7.104-2.024-8.064-6.509 2.795 1.925 5.362 4.065 8.064 6.509" style="fill:#10161b;fill-rule:nonzero" transform="translate(8.2893 1.2191)scale(.222)"/><path d="M262.91 44.679c-8.642.405-17.55.456-26.959.42 1.513-.425 3.528-1.042 5.545-1.048 7.049-.022 14.099.166 21.414.628" style="fill:#4a616e;fill-rule:nonzero" transform="translate(8.2893 1.2191)scale(.222)"/><path d="M477.981 101.423c.461-.418.9-.42 1.668-.419-.436 4.214-1.201 8.426-2.308 12.829-.022-3.87.298-7.931.64-12.41" style="fill:#11181b;fill-rule:nonzero" transform="translate(8.2893 1.2191)scale(.222)"/><path d="M28.027 129.416c1.154.133 2.333.646 3.251 1.045.257 2.77.49 5.272.714 8.162-1.319-2.684-2.629-5.756-3.965-9.207" style="fill:#0f181c;fill-rule:nonzero" transform="translate(8.2893 1.2191)scale(.222)"/><path d="M33.034 225.369c1.062-.395 2.109-.388 3.549-.387-.131 1.665-.655 3.336-1.179 5.007-.556-.036-1.112-.072-1.668-.107-.239-1.37-.478-2.74-.702-4.513" style="fill:#0d0a07;fill-rule:nonzero" transform="translate(8.2893 1.2191)scale(.222)"/><path d="M8.704 281.151c-.164 2.835-.604 5.936-1.353 8.945.153-2.954.615-5.817 1.353-8.945" style="fill:#10161a;fill-rule:nonzero" transform="translate(8.2893 1.2191)scale(.222)"/><path d="M495.928 281.604c-3.61.802-2.511-2.419-3.673-4.345-.255-.259-.253-.258-.253-.258-.007-.759-.013-1.518-.012-2.657 1.309 2.048 2.612 4.476 3.938 7.26" style="fill:#12191f;fill-rule:nonzero" transform="translate(8.2893 1.2191)scale(.222)"/><path d="M26.034 120.436c.768.383 2.066 1.101 2.188 1.981.257 1.86-.1 3.805-.228 6.139-.67-2.288-1.316-4.999-1.96-8.12" style="fill:#0f181c;fill-rule:nonzero" transform="translate(8.2893 1.2191)scale(.222)"/><path d="M167.624 60.983c-1.747 1.011-3.861 2.024-6.321 3.029 1.754-1.015 3.854-2.021 6.321-3.029" style="fill:#11181f;fill-rule:nonzero" transform="translate(8.2893 1.2191)scale(.222)"/><path d="M205.297 725.113c1.16-1.014 2.606-1.919 4.378-2.965-1.146.93-2.62 2.002-4.378 2.965" style="fill:#0c0a0d;fill-rule:nonzero" transform="translate(8.2893 1.2191)scale(.222)"/><path d="M30.696 239.153c-.126 2.384-.541 5.031-1.336 7.782.095-2.437.572-4.978 1.336-7.782" style="fill:#10161a;fill-rule:nonzero" transform="translate(8.2893 1.2191)scale(.222)"/><path d="M210.343 721.958c-.113-1.412-1.222-3.898 2.35-2.984-.458 1.001-1.236 1.971-2.35 2.984M48.368 717.99c.821-.492 2.006-.979 3.424-1.214-.864.574-1.963.896-3.424 1.214" style="fill:#0c0a0d;fill-rule:nonzero" transform="translate(8.2893 1.2191)scale(.222)"/><path d="M31.981 139.368c.678.766 1.354 1.884 2.012 3.392-.683-.754-1.348-1.896-2.012-3.392M33.71 38.084c-.148 1.127-.574 2.448-1.357 3.852.122-1.164.6-2.411 1.357-3.852M37.987 149.341c.338.458.666 1.26.981 2.407-.34-.456-.665-1.26-.981-2.407M35.004 145.313c.311.165.638.626.968 1.384-.316-.164-.634-.627-.968-1.384" style="fill:#0f181c;fill-rule:nonzero" transform="translate(8.2893 1.2191)scale(.222)"/><path d="M214.221 718.928c-.061-.2.125-.485.557-.852.06.201-.125.485-.557.852" style="fill:#112d3d;fill-rule:nonzero" transform="translate(8.2893 1.2191)scale(.222)"/><path d="M31.781 43.076c.033.154-.16.438-.577.854-.033-.153.159-.438.577-.854M34.085 144.171c.157-.026.419.177.79.607-.156.025-.42-.176-.79-.607M36.112 147.241c.216-.127.476.055.786.545-.209.12-.473-.061-.786-.545" style="fill:#0f181c;fill-rule:nonzero" transform="translate(8.2893 1.2191)scale(.222)"/><path d="M483.381 322.19c-1.144 3.313-2.289 6.627-3.901 10.38-1.374 1.62-2.508 2.688-3.154 3.997-8.529 17.289-21.175 31.193-35.302 44.05-16.412 14.936-35.204 26.075-55.066 35.509-22.305 10.595-45.576 18.616-70.029 22.319-18.67 2.828-37.494 4.86-56.321 6.337-9.888.775-19.963.014-29.892-.797-13.547-1.107-27.163-2.21-40.522-4.592-22.959-4.094-45.157-10.951-66.544-20.473-24.347-10.84-46.736-24.652-66.048-43.025-11.073-10.535-20.951-22.223-28.341-35.798-.899-1.653-2.578-2.881-3.895-4.306-1.151-2.681-2.301-5.363-3.087-8.619 1.127-4.567 2.034-8.539 2.627-12.557 2.87-19.461 8.338-37.523 24.958-50.251 2.32-1.777 3.936-5.176 4.706-8.13 1.541-5.913 2.389-12.019 3.313-18.078 4.087-26.789 15.179-50.926 29.569-73.381 9.002-14.047 20.33-26.532 32.885-37.843 18.18-16.377 38.336-29.272 60.924-38.753 23.22-9.746 47.466-13.746 72.333-13.974 11.537-.105 23.245 1.135 34.605 3.234 16.991 3.139 33.459 8.487 49.016 16.177 30.041 14.851 55.148 35.776 74.481 63.111 14.141 19.996 24.557 41.948 29.761 66.093 1.641 7.612 3.649 15.218 4.391 22.933.765 7.957 3.395 14.44 9.801 19.281 14.85 11.223 21.141 27.061 24.563 44.649.824 4.231.063 9.269 4.169 12.507M131.223 215.868c-.172.288-.344.575-.553 1.006 0 0-.006-.148-.564.106-.542 1.026-1.083 2.051-2.015 3.39-.074.15-.147.3-.818.701-.413.977-.825 1.954-1.541 3.355-.025.341-.049.682-.622 1.483-.837 3.381-1.674 6.763-2.765 11.032.13 3.997.261 7.995.113 12.749 1.161 7.186 2.952 14.108 8.297 19.352 0 0-.032.221.101.725.292.171.583.343.969.304 0 0-.141.182-.042.754.425.355.849.71 1.251 1.141 0 0 .076-.022.26.544.515.244 1.031.488 1.572.548 0 0-.074.17.135.752 1.668.753 3.336 1.507 5.591 2.498.627.007 1.254.014 2.27.462 1.224-.145 2.447-.29 4.289-.316.613-.117 1.226-.233 2.342-.109 1.665-1.016 3.33-2.033 5.317-3.077 0 0 .223-.233.833-.314.481-.621.962-1.242 1.359-1.953 0 0 .09.084.712-.08.796-.957 1.592-1.915 2.628-3.054 0 0 .036-.299.625-.655 2.447-6.408 6.081-12.637 7.074-19.262 1.666-11.122.385-22.17-7.797-31.017 0 0 .007-.164-.122-.681-.302-.166-.604-.331-1.089-.336 0 0 .207-.128.052-.659-.293-.207-.586-.414-1.075-.993-.189-.221-.426-.365-.935-.972-.348-.141-.695-.282-1.476-.772-.508-.197-1.017-.394-1.946-.989-.569-.097-1.137-.193-1.731-.435 0 0-.146.018-.415-.448-.814-.153-1.627-.306-3.219-.931-2.095.072-4.19.144-6.765-.056-1.56.734-3.119 1.468-5.146 2.394-.111.127-.221.254-.941.321-.912.757-1.825 1.514-2.636 2.251 0 0-.088.053-.596.202-.163.302-.326.604-.198 1.126 0 0-.281-.234-.783-.087m240.427 51.939c.447-.936.895-1.872 1.625-3.383.247-.802.494-1.604 1.193-2.854.515-1.212 1.031-2.423 1.98-4.248.048-.493.096-.987.76-1.876 3.205-8.262 3.315-16.81 1.318-25.223-1.017-4.288-3.597-8.206-5.529-12.233 0 0 .071-.042-.012-.713-1.633-1.465-3.266-2.93-4.958-4.286 0 0 .089-.087-.155-.68-1.307-.656-2.615-1.312-4.274-2.464-.567-.028-1.135-.057-2.435-.356-.772 0-1.544.001-2.602-.484-1.03.205-2.061.411-3.693.493-.605.083-1.209.166-2.353-.035a1854 1854 0 0 1-5.116 2.641s-.29.358-.95.309c-2.19 2.492-4.381 4.984-6.448 7.582 0 0-.119-.111-.745.153-7.299 13.282-7.173 27.089-2.141 40.887 2.565 7.035 6.569 13.393 15.762 15.256 2.025-.024 4.05-.048 6.618.177 2.886-1.779 5.773-3.559 8.522-5.445 0 0 .115.13.745-.014.774-.982 1.548-1.965 2.253-3.017 0 0 .053.082.635-.187m-77.679 45.346c.016-.712.032-1.424.253-2.425 0 0-.028-.354.459-.649.096-.352.193-.704.577-1.493.022-.342.044-.683.634-1.489 7.308-15.786-.815-34.607-18.16-40.895-18.038-6.539-36.287-6.109-54.2.587-12.562 4.695-19.433 15.66-19.48 29.071-.03 8.49 3.274 15.847 6.948 23.912 4.013 11.986 12.221 20.471 22.708 26.981 4.311 2.676 8.785 5.089 12.863 8.266-6.612 12.451-15.668 22.096-30.796 21.847-14.394-.237-25.195-7.571-32.156-20.243-1.756-3.197-3.037-6.658-4.838-9.825-.618-1.086-2.161-1.645-3.281-2.445-.801 1.146-2.246 2.274-2.279 3.442-.087 3.117-.079 6.403.796 9.353 4.833 16.288 16.512 25.318 32.484 29.076 16.34 3.846 29.717-1.868 40.806-13.886 1.309-1.419 2.607-2.848 4.811-5.255.914 1.541 1.391 2.642 2.123 3.534 11.478 13.986 25.863 20.197 43.774 15.295 17.591-4.815 28.627-16.367 32.316-34.328.496-2.411-1.328-5.298-2.077-7.964-1.797 1.854-3.936 3.484-5.322 5.606-3.421 5.237-5.587 11.598-9.862 15.922-22.515 22.778-48.585 9.9-55.933-11.462.494-.44.915-1.08 1.493-1.29 11.78-4.273 21.141-11.879 28.075-22.042 3.316-4.861 4.822-10.957 7.264-17.201" style="fill:#c7884f;fill-rule:nonzero" transform="translate(8.2893 1.2191)scale(.222)"/><path d="M298.559 698.5c3.365-11.088 6.993-22.106 9.997-33.291 1.884-7.016 2.83-14.284 4.541-22.039.262-1.787.18-2.972.098-4.158 0-.735 0-1.471.386-2.688.403-2.098.42-3.714.437-5.33.165-2.401.33-4.802.687-7.8.277-.839.276-1.081.187-1.322-.148-2.76-.296-5.52-.686-8.902-.917-.456-1.591-.289-2.265-.123-.928 1.498-1.857 2.996-3.294 4.799-5.389 2.25-10.297 4.126-15.142 6.153-24.696 10.333-49.878 10.583-75.423 3.752-7.022-1.878-14.058-3.704-21.088-5.555-1.553-1.933-2.873-4.151-4.745-5.699-1.212-1.003-3.436-1.691-4.823-1.267-1.012.31-2.05 2.707-1.956 4.099.487 7.273.431 14.754 2.226 21.736 4.948 19.253 10.723 38.293 15.994 57.97.324 1.752.825 2.952 1.326 4.151.256 1.084.511 2.169.25 3.603-5.322.381-10.129.411-14.935.446-8.782.065-17.591-.285-26.339.292-14.825.98-29.29.893-42.183-8.029-1.029-.712-2.399-.93-3.61-1.377-6.837-10.748-14.601-21.025-20.339-32.331-18.576-36.602-30.673-75.317-36.253-116.093-3.306-24.155-4.499-48.303-2.429-73.282.203-1.851.087-3.025-.029-4.199-.018-.448-.036-.896.13-1.773.364-.762.291-1.036-.036-1.251.002-.426.003-.851.342-1.664.302-1.045.267-1.705.231-2.364.628-4.739 1.255-9.477 2.259-14.775 1.739-.524 3.423-.991 4.407-.362 3.63 2.32 6.888 5.228 10.538 7.512 21.298 13.325 43.684 24.242 67.625 32.182 31.964 10.6 64.771 15.538 98.271 16.369 10.614.264 21.264-.4 31.883-.943 9.27-.474 18.664-.584 27.743-2.262 16.103-2.976 32.111-6.621 47.974-10.704 25.712-6.619 49.402-17.955 71.566-32.487 6.217-4.077 12.196-8.517 18.284-12.79.59 3.15 1.179 6.3 1.522 10.027.09 1.502.426 2.425.761 3.348.087 1.049.174 2.097.019 3.747-.057 1.451.127 2.299.311 3.148 3.354 35.617.084 70.798-7.181 105.679-5.737 27.545-13.239 54.616-23.574 80.81-6.182 15.666-13.286 30.921-25.193 43.293-2.177 2.262-4.693 4.197-7.793 6.316-15.116 3.549-29.656 5.336-44.502 4.994-12.619-.29-25.252-.003-37.878.029-.05-.79-.1-1.58.104-2.813.327-.54.482-.676.458-.725-.098-.202-.251-.377-.384-.561.078-.725.156-1.45.63-2.66.561-1.269.727-2.052.893-2.836" style="fill:#b26836;fill-rule:nonzero" transform="translate(8.2893 1.2191)scale(.222)"/><path d="M483.571 321.858c-4.296-2.906-3.535-7.944-4.359-12.175-3.422-17.588-9.713-33.426-24.563-44.649-6.406-4.841-9.036-11.324-9.801-19.281-.742-7.715-2.75-15.321-4.391-22.933-5.204-24.145-15.62-46.097-29.761-66.093-19.333-27.335-44.44-48.26-74.481-63.111-15.557-7.69-32.025-13.038-49.016-16.177-11.36-2.099-23.068-3.339-34.605-3.234-24.867.228-49.113 4.228-72.333 13.974-22.588 9.481-42.744 22.376-60.924 38.753-12.555 11.311-23.883 23.796-32.885 37.843-14.39 22.455-25.482 46.592-29.569 73.381-.924 6.059-1.772 12.165-3.313 18.078-.77 2.954-2.386 6.353-4.706 8.13-16.62 12.728-22.088 30.79-24.958 50.251-.593 4.018-1.5 7.99-2.591 12.192-6.949-20.516-5.953-40.419 6.213-59.05 1.811-2.774 3.606-5.77 6.088-7.853 7.936-6.66 7.769-16.174 9.219-25.022 4.668-28.477 15.048-54.782 30.211-79.163C93.127 123.428 119.695 97.796 153.457 80c25.026-13.192 51.737-20.521 79.959-23 32.25-2.833 63.394 1.459 93.615 12.783 23.624 8.852 44.707 21.922 63.76 39.331.993.9 1.609 1.35 2.225 1.8 0 0 .151.265.401.561.709.622 1.167.948 1.625 1.274 0 0 .137.327.399.685.617.54.971.721 1.326.903 0 0 0-.128.055.208.689.795 1.323 1.255 1.958 1.714 0 0 .129-.158.121.217.965 1.226 1.937 2.078 2.91 2.929 0 0 .049.357.267.753.686.764 1.154 1.131 1.621 1.498 17.713 19.458 31.874 41.162 41.602 65.682 7.283 18.358 11.369 37.505 13.248 57.063.5 5.202 2.194 8.746 6.156 11.652 6.937 5.089 12.571 11.276 16.358 19.104 6.227 12.873 6.024 26.354 4.014 40.025-.313 2.133-.871 4.23-1.506 6.676" style="fill:#e9ad68;fill-rule:nonzero" transform="translate(8.2893 1.2191)scale(.222)"/><path d="M440.345 446.299c-6.067 4.678-12.046 9.118-18.263 13.195-22.164 14.532-45.854 25.868-71.566 32.487-15.863 4.083-31.871 7.728-47.974 10.704-9.079 1.678-18.473 1.788-27.743 2.262-10.619.543-21.269 1.207-31.883.943-33.5-.831-66.307-5.769-98.271-16.369-23.941-7.94-46.327-18.857-67.625-32.182-3.65-2.284-6.908-5.192-10.538-7.512-.984-.629-2.668-.162-4.304-.031 1.925-10.145 4.124-20.457 6.58-31.974 54.808 41.679 115.887 58.898 182.553 59.118 66.623.221 127.547-16.782 181.477-58.668 3.845 9.297 6.062 18.347 7.557 28.027" style="fill:#8f4a21;fill-rule:nonzero" transform="translate(8.2893 1.2191)scale(.222)"/><path d="M24.266 336.164c1.417 1.052 3.096 2.28 3.995 3.933 7.39 13.575 17.268 25.263 28.341 35.798 19.312 18.373 41.701 32.185 66.048 43.025 21.387 9.522 43.585 16.379 66.544 20.473 13.359 2.382 26.975 3.485 40.522 4.592 9.929.811 20.004 1.572 29.892.797 18.827-1.477 37.651-3.509 56.321-6.337 24.453-3.703 47.724-11.724 70.029-22.319 19.862-9.434 38.654-20.573 55.066-35.509 14.127-12.857 26.773-26.761 35.302-44.05.646-1.309 1.78-2.377 2.996-3.66-1.279 11.055-6.889 20.565-12.788 29.724-23.117 35.898-55.15 61.268-93.969 78.473-30.275 13.419-62.078 20.436-94.966 23.048-29.351 2.33-58.448.529-87.4-4.787-32.761-6.015-63.446-17.397-91.632-35.141-31.074-19.561-55.804-45.017-71.229-78.784-1.304-2.855-2.126-5.93-3.072-9.276" style="fill:#8e4a21;fill-rule:nonzero" transform="translate(8.2893 1.2191)scale(.222)"/><path d="M60.27 155.03c-.731.191-1.461.381-2.662.374-1.505-.949-2.541-1.7-3.576-2.451 0 0-.033.045-.078-.27-.648-.84-1.252-1.365-1.856-1.891-.282-.462-.564-.924-1.05-1.888-.765-1.081-1.326-1.66-1.888-2.239 0 0-.088-.37-.243-.798-.66-.987-1.165-1.546-1.67-2.105 0 0-.082.038-.103-.235-.316-.546-.61-.82-.905-1.093-.418-.962-.836-1.925-1.428-3.444-1.003-1.8-1.831-3.042-2.66-4.285-.138-.385-.277-.77-.533-1.746-1.661-4.365-3.205-8.14-4.75-11.915-.041-.758-.083-1.516-.182-3.022-1.032-5.137-2.008-9.527-2.985-13.916.044-7.758.088-15.517.334-24.016.934-5.542 1.667-10.344 2.399-15.146.14-.748.281-1.495.651-2.834.423-1.437.617-2.284.81-3.131.149-.613.297-1.226.689-2.378 2.63-6.56 5.016-12.583 7.403-18.605.222-.309.444-.619 1.054-1.245.547-.792.707-1.269.866-1.745 3.246-3.488 6.491-6.976 10.226-10.79 1.115-.875 1.74-1.425 2.365-1.975 0 0 .263.084.746.021 1.552-.529 2.621-.994 3.69-1.459 2.084.037 4.168.075 6.946.282 2.851.467 5.009.764 7.166 1.061.304.148.625.218 1.436.438 2.806 1.001 5.139 1.774 7.472 2.547.52.212 1.039.424 2.031.911 4.994 2.458 9.516 4.642 14.038 6.826 0 0 .286.239.635.551 1.69 1.002 3.03 1.692 4.371 2.381.439.362.877.724 1.683 1.499 1.679 1.132 2.992 1.851 4.306 2.57 0 0 .209.243.507.55.649.507.999.707 1.349.907 1.081.891 2.161 1.781 3.67 3.053 2.085 1.822 3.741 3.264 5.397 4.705 0 0 .051-.075.089.248.682.771 1.327 1.218 1.972 1.665.495.589.991 1.178 1.813 2.197 1.283 1.213 2.239 1.997 3.195 2.781.068.338.238.613.812 1.245 1.217 1.262 2.13 2.104 3.044 2.946 0 0 .093-.116.099.246.977 1.483 1.946 2.605 2.916 3.727 0 0 .079-.055.093.217.317.479.621.686.925.894 0 0 .178.396.309.881.402 2.632.673 4.777.944 6.923-1.267.785-2.535 1.57-4.274 2.675-.743.583-1.016.846-1.288 1.108 0 0-.334.047-.779.19-1.424.988-2.404 1.832-3.384 2.676-.683.297-1.365.594-2.55 1.124-1.085.821-1.669 1.408-2.253 1.995 0 0-.348.06-.8.217-1.425 1-2.398 1.843-3.371 2.685 0 0-.274-.01-.773.158-5.393 1.682-4.601-4.174-7.507-5.238 0 0-.105-.356-.248-.818-1.343-2.043-2.543-3.622-3.744-5.202 0 0-.048-.347-.192-.786-.702-1.025-1.262-1.609-1.821-2.194-.047-.278-.185-.498-.683-1.081-1.92-2.309-3.573-4.197-5.226-6.085-.296-.409-.592-.818-1.175-1.576-.46-.662-.725-.824-1.084-.833 0 0-.203-.227-.494-.514-.629-.469-.967-.651-1.305-.833 0 0 .069.054-.039-.267-.762-.743-1.414-1.165-2.067-1.588 0 0-.063.108-.12-.24-1.327-1.184-2.597-2.021-3.866-2.857-.413-.298-.825-.595-1.716-1.205-3.452-1.446-6.427-2.579-9.402-3.711-1.715-.394-3.43-.787-5.701-1.42-.872-.365-1.18-.347-1.479-.183-.69.042-1.38.085-2.689.096-1.057-.057-1.494-.082-2.314-.193-1.851.886-3.318 1.856-5.078 3.007-2.659 4.842-5.77 9.282-7.232 14.211-2.672 9.004-5.396 18.205-6.228 27.491-1.207 13.461 2.947 26.299 8.609 38.407 1.719 3.676 5.324 6.469 8.066 9.667.034.166.069.333-.192.825-.471.622-.646.918-.822 1.214-.671.97-1.343 1.94-2.351 3.355-.49.812-.644 1.18-.797 1.548 0 0 .089-.035-.241.086-1.31 2.103-2.291 4.084-3.272 6.065" style="fill:#b67741;fill-rule:nonzero" transform="translate(8.2893 1.2191)scale(.222)"/><path d="M436.047 50.957c-24.534-2.82-39.203 10.957-50.563 30.168-3.371 5.701-3.179 5.705-8.678 2.045-5.397-3.592-10.861-7.09-16.405-10.449-2.593-1.57-2.979-2.958-1.107-5.509 16.438-22.388 37.427-38.069 64.864-44.29 10.839-2.458 19.555.522 26.046 9.967 14.717 21.417 19.642 45.084 16.976 70.646-1.885 18.074-7.79 34.618-18.448 49.398-1.243 1.724-2.596 3.37-4.4 5.701-3.714-6.003-7.068-11.423-10.062-17.222 1.415-1.029 3-1.428 3.443-2.366 3.604-7.634 7.363-15.227 10.362-23.105 4.136-10.867 4.608-22.22 2.983-33.698-1.538-10.857-5.456-20.641-12.58-29.281-.748-.856-1.59-1.43-2.431-2.005" style="fill:#c2854e;fill-rule:nonzero" transform="translate(8.2893 1.2191)scale(.222)"/><path d="M433.334 630.91c2.501-9.232 5.021-18.459 7.5-27.698 6.776-25.249 12.37-50.714 14.035-76.9.439-6.908 1.034-13.805 1.604-21.329.981.725 1.738 1.04 2.13 1.608 16.132 23.351 25.539 48.844 24.159 77.609-.64 13.349-2.566 26.485-9.564 38.73-1.632.264-2.651.201-3.57.474-5.301 1.573-10.491 3.661-15.886 4.741-6.718 1.345-13.598 1.88-20.408 2.765" style="fill:#af6636;fill-rule:nonzero" transform="translate(8.2893 1.2191)scale(.222)"/><path d="M18.664 587.856c.872-10.543.677-21.312 2.851-31.58 3.819-18.029 11.738-34.563 22.064-49.882.618-.916.998-1.992 2.349-2.569 1.233 44.091 9.111 86.309 23.104 127.85-2.712 1.11-5.058 2.155-7.436 2.235-10.544.353-17.863-5.872-24.52-12.896-5.511-5.814-10.586-12.042-15.855-18.086-.746-4.02-1.493-8.04-2.023-12.635-.033-1.196-.284-1.816-.534-2.437" style="fill:#b06735;fill-rule:nonzero" transform="translate(8.2893 1.2191)scale(.222)"/><path d="M256 706.172c-11.495-.07-22.491-.249-33.484-.148-3.546.033-5.166-.979-6.185-4.676-3.002-10.893-6.643-21.609-9.96-32.417-1.823-5.94-1.724-6.032 4.785-6.033 17.326-.003 34.656.224 51.978-.043 8.792-.136 17.567-1.182 26.356-1.728 2.616-.162 5.252-.025 8.871-.025-1.146 4.083-2.022 7.68-3.165 11.189-3.142 9.644-6.474 19.226-9.555 28.888-.875 2.742-2.121 4.126-5.216 4.166-7.977.104-15.95.53-24.425.827" style="fill:#8e4922;fill-rule:nonzero" transform="translate(8.2893 1.2191)scale(.222)"/><path d="M438.384 53.243c7.218 8.359 11.136 18.143 12.674 29 1.625 11.478 1.153 22.831-2.983 33.698-2.999 7.878-6.758 15.471-10.362 23.105-.443.938-2.028 1.337-3.47 2.014-6.141-7.354-11.489-15.103-17.758-22.019-6.881-7.592-14.611-14.415-22.092-22.141-.399-.785-.676-1.003-.953-1.22 0 0-.061-.059-.255-.376-.449-2.158-1.268-4.149-.829-5.807.7-2.647 2.235-5.072 3.417-7.592 0 0 .274-.268.628-.54.468-.624.581-.976.693-1.327.3-.43.599-.86 1.288-1.641.802-1.029 1.214-1.708 1.626-2.386.325-.419.65-.838 1.395-1.609 1.072-1.399 1.724-2.447 2.376-3.494 0 0 .296-.236.657-.479.532-.564.703-.885.875-1.206.27-.128.498-.309 1.108-.794.912-.901 1.4-1.55 1.889-2.199.746-.646 1.492-1.291 2.746-2.184 1.418-1.109 2.329-1.971 3.239-2.833 1.361-1.03 2.722-2.06 4.701-3.305 1.91-.872 3.202-1.529 4.494-2.186 0 0 .195.018.614.023 1.944-.559 3.47-1.123 5.326-1.67 1.075-.355 1.819-.727 2.564-1.1.449-.024.898-.049 1.961-.001 1.886.138 3.158.204 4.431.269" style="fill:#ebaf69;fill-rule:nonzero" transform="translate(8.2893 1.2191)scale(.222)"/><path d="M68.144 141.737c-2.941-2.998-6.546-5.791-8.265-9.467-5.662-12.108-9.816-24.946-8.609-38.407.832-9.286 3.556-18.487 6.228-27.491 1.462-4.929 4.573-9.369 7.628-14.152 2.015-.064 3.341-.007 5.013.15.819.065 1.291.031 1.763-.004.257.24.56.341 1.319.446.814.252 1.218.362 1.623.471 0 0 .051-.154.187.187 2.708 1.48 5.28 2.619 7.852 3.759 0 0-.014-.095.064.198.742.647 1.406 1.002 2.07 1.357 0 0 .192.322.475.654.639.5.995.667 1.352.834 0 0-.018-.095.099.214 1.336 1.151 2.554 1.993 3.772 2.835 0 0 .155-.185.132.199.644.892 1.31 1.4 1.976 1.908-.02.298.099.522.641 1.041 1.718 1.98 3.151 3.592 4.583 5.203 0 0 .133.366.387.785 1.257 1.678 2.259 2.937 3.262 4.197 0 0-.048.232.094.655 1.703 2.752 3.265 5.082 4.828 7.411 0 0-.053.195.031.631 1.056 2.074 2.028 3.711 3 5.349-.172.313-.176.629.145 1.508.3 1.311.447 2.061.594 2.81 0 0-.398.22-.79.55-2.984 2.951-5.576 5.571-8.168 8.192-.273-.033-.478.07-.988.579-5.458 5.686-10.542 11.102-15.627 16.517 0 0 .084.052-.19.081-.418.361-.562.692-.707 1.023 0 0 .07.027-.221.061-.465.351-.638.668-.812.985-.3.099-.536.282-1.111.867-2.068 2.605-3.729 4.891-5.39 7.177 0 0-.376.208-.753.514-.527.684-.677 1.062-.827 1.439 0 0-.164.132-.436.395-.987 1.375-1.702 2.486-2.416 3.598 0 0-.243.113-.523.415-.683 1.057-1.084 1.812-1.486 2.567-.533.519-1.066 1.039-1.799 1.759" style="fill:#edb069;fill-rule:nonzero" transform="translate(8.2893 1.2191)scale(.222)"/><path d="M196.959 622.417c7.065 1.43 14.101 3.256 21.123 5.134 25.545 6.831 50.727 6.581 75.423-3.752 4.845-2.027 9.753-3.903 15.014-5.845-1.797 9.168-3.87 18.361-6.289 27.462-.302 1.135-2.358 2.384-3.732 2.561-8.869 1.141-17.763 2.657-26.672 2.818-21.611.392-43.235.035-64.853.169-3.835.024-5.71-.966-6.235-5.068-.987-7.722-2.512-15.375-3.779-23.479" style="fill:#8e4921;fill-rule:nonzero" transform="translate(8.2893 1.2191)scale(.222)"/><path d="M460.858 690.283c4.483 11.757 5.555 15.048-8.521 15.43-18.251.495-36.524.196-54.788.219-.291 0-.583-.263-1.232-.576.341-.806.59-1.685 1.049-2.435 6.643-10.874 13.479-21.634 19.876-32.65 1.878-3.233 3.361-4.441 7.342-3.58 7.076 1.529 14.432 1.762 21.511 3.28 2.498.535 5.195 2.815 6.638 5.05 3.045 4.717 5.323 9.93 8.125 15.262" style="fill:#8c4820;fill-rule:nonzero" transform="translate(8.2893 1.2191)scale(.222)"/><path d="M48.05 705.169c-9.974 0-9.953-.443-8.718-9.365 3.09-22.33 27.7-31.923 48.544-21.75.838.409 1.622 1.19 2.122 1.991 5.452 8.729 10.85 17.492 16.23 26.265.32.523.367 1.213.834 2.858-19.819 0-39.169 0-59.012.001" style="fill:#8d4922;fill-rule:nonzero" transform="translate(8.2893 1.2191)scale(.222)"/><path d="M21.133 603.323c5.357 5.649 10.432 11.877 15.943 17.691 6.657 7.024 13.976 13.249 24.52 12.896 2.378-.08 4.724-1.125 7.495-1.846 4.33 8.553 8.249 17.226 12.53 26.7-11.647-.131-21.842 1.452-31.281-7.189-14.569-13.336-24.838-28.65-29.207-48.252" style="fill:#8a4822;fill-rule:nonzero" transform="translate(8.2893 1.2191)scale(.222)"/><path d="M433.073 631.193c7.071-1.168 13.951-1.703 20.669-3.048 5.395-1.08 10.585-3.168 15.886-4.741.919-.273 1.938-.21 3.331-.222-4.018 12.548-11.17 23.142-21.824 31.075-7.64 5.688-15.987 4.457-24.128 1.1-.942-.388-1.788-3.093-1.39-4.3 2.176-6.6 4.754-13.067 7.456-19.864" style="fill:#8d4921;fill-rule:nonzero" transform="translate(8.2893 1.2191)scale(.222)"/><path d="M118.273 698.245c1.137.123 2.507.341 3.536 1.053 12.893 8.922 27.358 9.009 42.183 8.029 8.748-.577 17.557-.227 26.339-.292 4.806-.035 9.613-.065 14.852-.118-.566 7.395-3.154 9.979-10.277 10.147-10.073.238-20.151.281-30.584.606-3.046.18-5.734.161-8.869.189-16.067.049-28.291-6.388-37.18-19.614" style="fill:#8d4922;fill-rule:nonzero" transform="translate(8.2893 1.2191)scale(.222)"/><path d="M296.831 708.48c12.653-.417 25.286-.704 37.905-.414 14.846.342 29.386-1.445 44.186-4.886-6.159 8.794-14.973 13.567-25.827 13.773-15.594.297-31.199.174-46.797.038-5.715-.049-8.334-2.556-9.467-8.511" style="fill:#8d4823;fill-rule:nonzero" transform="translate(8.2893 1.2191)scale(.222)"/><path d="M85.19 120.902c4.71-5.461 9.794-10.877 15.224-16.384-.684 1.961-1.28 4.453-2.828 5.98-3.772 3.722-7.985 6.995-12.396 10.404M45.643 38.064c-2.043 5.954-4.429 11.977-7.106 18.222 2.061-5.903 4.412-12.028 7.106-18.222M36.133 65.091c-.431 4.655-1.164 9.457-2.17 14.53.44-4.614 1.154-9.499 2.17-14.53" style="fill:#25180b;fill-rule:nonzero" transform="translate(8.2893 1.2191)scale(.222)"/><path d="M395.448 81.988c-.857 2.437-2.392 4.862-3.092 7.509-.439 1.658.38 3.649.793 5.785-3.229.336-4.437-1.443-3.091-4.377 1.41-3.073 3.354-5.901 5.39-8.917" style="fill:#523b1d;fill-rule:nonzero" transform="translate(8.2893 1.2191)scale(.222)"/><path d="M101.834 103.802c2.188-2.663 4.78-5.283 7.695-8.017.764 5.387-2.779 7.175-7.695 8.017M103.955 32.537c-4.454-1.853-8.976-4.037-13.683-6.516 4.414 1.864 9.014 4.024 13.683 6.516M33.484 104.408c1.194 4.087 2.17 8.477 3.07 13.257-1.146-4.058-2.217-8.507-3.07-13.257M115.128 81.036c2.951.672 2.159 6.528 7.454 4.943-.99 3.58-2.993 3.713-5.112.652-1.07-1.544-1.609-3.457-2.342-5.595M36.635 121.286c1.778 3.533 3.322 7.308 4.79 11.432-1.725-3.497-3.373-7.343-4.79-11.432M76.736 131.039c1.309-2.275 2.97-4.561 4.947-6.957.517 3.521-.542 6.275-4.947 6.957" style="fill:#25180b;fill-rule:nonzero" transform="translate(8.2893 1.2191)scale(.222)"/><path d="M103.884 716.225c-1.937.374-3.985.449-6.461.411 1.49-4.203 3.893-2.767 6.461-.411" style="fill:#0c0a0d;fill-rule:nonzero" transform="translate(8.2893 1.2191)scale(.222)"/><path d="M106.709 84.327c-1.654-1.936-3.216-4.266-4.821-6.951 1.608 1.949 3.261 4.253 4.821 6.951M82.197 51.146c2.769.84 5.744 1.973 8.938 3.39-2.764-.844-5.748-1.971-8.938-3.39M103.213 64.865c1.699 1.501 3.352 3.389 5.09 5.617-1.654-1.517-3.395-3.374-5.09-5.617M82.776 56.889c-2.465-.8-5.037-1.939-7.8-3.359 2.437.819 5.065 1.919 7.8 3.359M142.498 72.951c-.617-2.043-.888-4.188-1.134-6.669 3.744 1.283 3.17 3.807 1.134 6.669M60.601 154.964c.65-1.915 1.631-3.896 2.902-6.026-.663 1.888-1.617 3.924-2.902 6.026M125.927 48.729c-1.642-1.086-3.298-2.528-5.09-4.277 1.602 1.103 3.339 2.512 5.09 4.277M78.822 21.868c-1.933-.019-4.091-.316-6.5-.847 1.925.034 4.1.301 6.5.847M111.158 75.015c1.224 1.189 2.424 2.768 3.63 4.686-1.214-1.207-2.434-2.752-3.63-4.686M98.037 71.322c-1.422-1.261-2.855-2.873-4.377-4.815 1.395 1.269 2.881 2.867 4.377 4.815M87.806 24.795c-2.185-.437-4.518-1.21-7.082-2.264 2.157.456 4.546 1.191 7.082 2.264M109.754 90.267c-1.077-1.205-2.049-2.842-3.034-4.844 3.232-.221 3.387 1.963 3.034 4.844" style="fill:#25180b;fill-rule:nonzero" transform="translate(8.2893 1.2191)scale(.222)"/><path d="M438.478 52.962c-1.367.216-2.639.15-4.199-.08.292-.6.872-1.036 1.61-1.698.999.348 1.841.922 2.589 1.778" style="fill:#48331e;fill-rule:nonzero" transform="translate(8.2893 1.2191)scale(.222)"/><path d="M313.752 631.263c.249 1.347.232 2.963-.094 4.7-.263-1.396-.218-2.913.094-4.7" style="fill:#8e4921;fill-rule:nonzero" transform="translate(8.2893 1.2191)scale(.222)"/><path d="M90.766 62.935c-1.269-.456-2.487-1.298-3.86-2.419 1.2.493 2.555 1.263 3.86 2.419M101.762 76.246c-1.069-.852-2.071-2.111-3.148-3.714 1.021.873 2.117 2.089 3.148 3.714M42.107 135.094c.873.854 1.701 2.096 2.487 3.658-.872-.877-1.701-2.073-2.487-3.658M114.954 39.54c-1.25-.39-2.563-1.109-3.976-2.138 1.238.397 2.575 1.103 3.976 2.138M108.952 35.472c-1.264-.361-2.604-1.051-4.11-2.028 1.235.375 2.634 1.037 4.11 2.028" style="fill:#25180b;fill-rule:nonzero" transform="translate(8.2893 1.2191)scale(.222)"/><path d="M429.097 54.058c-1.525.564-3.051 1.128-4.924 1.62.429-.641 1.207-1.211 2.685-1.758 1.214.06 1.727.099 2.239.138" style="fill:#523b1d;fill-rule:nonzero" transform="translate(8.2893 1.2191)scale(.222)"/><path d="M133.005 55.612c-.951-.421-1.907-1.205-2.919-2.307.935.436 1.924 1.19 2.919 2.307M139.891 63.777c-.98-.76-1.949-1.882-2.989-3.326.953.773 1.976 1.869 2.989 3.326M93.126 56.126c1.252.48 2.522 1.317 3.898 2.463-1.223-.496-2.551-1.301-3.898-2.463M64.71 20.587c-.845.681-1.914 1.146-3.346 1.607.799-.61 1.96-1.216 3.346-1.607" style="fill:#25180b;fill-rule:nonzero" transform="translate(8.2893 1.2191)scale(.222)"/><path d="M413.947 61.171c-.564.904-1.475 1.766-2.705 2.644.573-.884 1.466-1.785 2.705-2.644" style="fill:#523b1d;fill-rule:nonzero" transform="translate(8.2893 1.2191)scale(.222)"/><path d="M277.999 47.999c-1.827.425-3.654.853-5.48 1.28-.052-.426-.104-.851-.155-1.277 1.608 0 3.215 0 5.231.001.408 0 .405-.003.404-.004" style="fill:#161f23;fill-rule:nonzero" transform="translate(8.2893 1.2191)scale(.222)"/><path d="M401.839 119.027c-1.001-.473-1.973-1.325-3.021-2.493.966.494 2.008 1.304 3.021 2.493" style="fill:#281e0d;fill-rule:nonzero" transform="translate(8.2893 1.2191)scale(.222)"/><path d="M123.825 85.778c.601-.896 1.574-1.739 2.872-2.616-.616.868-1.558 1.769-2.872 2.616" style="fill:#25180b;fill-rule:nonzero" transform="translate(8.2893 1.2191)scale(.222)"/><path d="M429.428 54.075c-.843-.056-1.356-.095-2.255-.173 1.22-.496 2.826-.952 4.626-1.167-.552.613-1.296.985-2.371 1.34" style="fill:#48331e;fill-rule:nonzero" transform="translate(8.2893 1.2191)scale(.222)"/><path d="M423.157 55.698c-.961.681-2.253 1.338-3.881 2.036.959-.659 2.255-1.36 3.881-2.036" style="fill:#523b1d;fill-rule:nonzero" transform="translate(8.2893 1.2191)scale(.222)"/><path d="M136.875 59.812c-.923-.488-1.836-1.33-2.83-2.484.892.502 1.866 1.316 2.83 2.484M132.8 79.762c.607-.903 1.587-1.747 2.894-2.614-.623.876-1.572 1.774-2.894 2.614" style="fill:#25180b;fill-rule:nonzero" transform="translate(8.2893 1.2191)scale(.222)"/><path d="M403.443 70.961c-.316.994-.968 2.042-1.921 3.204.329-.973.957-2.062 1.921-3.204" style="fill:#523b1d;fill-rule:nonzero" transform="translate(8.2893 1.2191)scale(.222)"/><path d="M72.33 136.953c.336-1.069 1.051-2.18 2.062-3.452-.363 1.029-1.023 2.219-2.062 3.452M54.064 153.321c1.003.383 2.039 1.134 3.266 2.154-.951-.415-2.092-1.1-3.266-2.154" style="fill:#25180b;fill-rule:nonzero" transform="translate(8.2893 1.2191)scale(.222)"/><path d="M442.767 459.758c-.453-.602-.789-1.525-.861-2.618.502.653.74 1.475.861 2.618" style="fill:#8f4a21;fill-rule:nonzero" transform="translate(8.2893 1.2191)scale(.222)"/><path d="M110.688 94.943c-.447-.674-.594-1.424-.729-2.555.351.572.691 1.526.729 2.555M71.932 52.02c-.502.381-.974.415-1.772-.033-.206-1.238-.087-1.993.031-2.748.437.026.874.051 1.606.225.251.836.208 1.523.135 2.556" style="fill:#25180b;fill-rule:nonzero" transform="translate(8.2893 1.2191)scale(.222)"/><path d="M109.905 716.249c-.662.338-1.415.415-2.534.381.57-.288 1.507-.466 2.534-.381" style="fill:#0c0a0d;fill-rule:nonzero" transform="translate(8.2893 1.2191)scale(.222)"/><path d="M37.595 59.033c.107.793-.087 1.64-.541 2.695-.093-.741.074-1.691.541-2.695" style="fill:#25180b;fill-rule:nonzero" transform="translate(8.2893 1.2191)scale(.222)"/><path d="M205.062 702.624c-.547-.837-1.048-2.037-1.328-3.428.605.894.99 1.98 1.328 3.428" style="fill:#8d4922;fill-rule:nonzero" transform="translate(8.2893 1.2191)scale(.222)"/><path d="M60.139 22.198c-.266.593-.891 1.143-1.83 1.731.281-.566.875-1.17 1.83-1.731M97.121 59.213c.627.077 1.279.499 2.048 1.199-.597-.1-1.31-.477-2.048-1.199" style="fill:#25180b;fill-rule:nonzero" transform="translate(8.2893 1.2191)scale(.222)"/><path d="M475.703 107.142c.134.758.106 1.341.077 1.924-.235-.034-.47-.067-.706-.101.156-.666.311-1.332.629-1.823" style="fill:#11181b;fill-rule:nonzero" transform="translate(8.2893 1.2191)scale(.222)"/><path d="M127.958 50.674c-.601-.124-1.246-.571-1.967-1.317.59.133 1.256.563 1.967 1.317M127.973 82.843c.235-.608.819-1.195 1.72-1.801-.246.595-.808 1.209-1.72 1.801" style="fill:#25180b;fill-rule:nonzero" transform="translate(8.2893 1.2191)scale(.222)"/><path d="M399.67 76.054c-.074.635-.486 1.314-1.185 2.102.091-.613.469-1.336 1.185-2.102" style="fill:#523b1d;fill-rule:nonzero" transform="translate(8.2893 1.2191)scale(.222)"/><path d="M109.148 71.987c.579.242 1.139.826 1.725 1.72-.564-.253-1.154-.815-1.725-1.72" style="fill:#25180b;fill-rule:nonzero" transform="translate(8.2893 1.2191)scale(.222)"/><path d="M298.291 698.671c.102.613-.064 1.396-.521 2.315-.109-.624.072-1.385.521-2.315" style="fill:#8d4823;fill-rule:nonzero" transform="translate(8.2893 1.2191)scale(.222)"/><path d="M84.955 58.471c-.602-.042-1.266-.397-2.049-1.02.583.057 1.285.381 2.049 1.02" style="fill:#25180b;fill-rule:nonzero" transform="translate(8.2893 1.2191)scale(.222)"/><path d="M407.952 66.218c-.133.661-.621 1.31-1.417 2.024.148-.636.605-1.336 1.417-2.024" style="fill:#523b1d;fill-rule:nonzero" transform="translate(8.2893 1.2191)scale(.222)"/><path d="M59.6 465.17c.252.453.287 1.113.07 1.85-.263-.496-.275-1.07-.07-1.85M59.044 472.401c.221.789.337 1.963.218 3.354-.265-.845-.294-1.906-.218-3.354" style="fill:#8f4a21;fill-rule:nonzero" transform="translate(8.2893 1.2191)scale(.222)"/><path d="M92.834 65.053c-.677-.133-1.343-.641-2.084-1.462.649.154 1.372.62 2.084 1.462" style="fill:#25180b;fill-rule:nonzero" transform="translate(8.2893 1.2191)scale(.222)"/><path d="M18.502 588.126c.412.351.663.971.711 1.735-.426-.393-.65-.93-.711-1.735" style="fill:#8a4822;fill-rule:nonzero" transform="translate(8.2893 1.2191)scale(.222)"/><path d="M312.289 612.915c.326-.234 1-.401 1.719-.291-.426.304-.898.331-1.719.291M313.078 639.395c.199.803.281 1.988.107 3.373-.246-.864-.235-1.927-.107-3.373" style="fill:#8e4921;fill-rule:nonzero" transform="translate(8.2893 1.2191)scale(.222)"/><path d="M70.309 139.913c.036-.69.437-1.445 1.127-2.368-.062.655-.412 1.479-1.127 2.368M47.199 144.084c.553.237 1.058.796 1.582 1.65-.531-.246-1.08-.786-1.582-1.65M49.14 147.003c.582.241 1.143.82 1.714 1.709-.572-.25-1.153-.81-1.714-1.709M52.104 151.133c.598.185 1.202.71 1.874 1.536-.578-.198-1.223-.697-1.874-1.536" style="fill:#25180b;fill-rule:nonzero" transform="translate(8.2893 1.2191)scale(.222)"/><path d="M398.8 115.9c-.655-.1-1.289-.56-2.02-1.306.616.124 1.328.536 2.02 1.306" style="fill:#281e0d;fill-rule:nonzero" transform="translate(8.2893 1.2191)scale(.222)"/><path d="M10.853 283.299c-.126.392-.293.582-.459.772-.079-.278-.157-.557-.235-.836.218-.046.436-.091.694.064" style="fill:#10161a;fill-rule:nonzero" transform="translate(8.2893 1.2191)scale(.222)"/><path d="M392.972 110.6c-.572-.136-1.188-.586-1.898-1.314.556.148 1.205.574 1.898 1.314" style="fill:#281e0d;fill-rule:nonzero" transform="translate(8.2893 1.2191)scale(.222)"/><path d="M443.054 466.605c-.259-.48-.443-1.328-.423-2.384.301.533.399 1.274.423 2.384" style="fill:#8f4a21;fill-rule:nonzero" transform="translate(8.2893 1.2191)scale(.222)"/><path d="M29.418 125.772c.039-.024-.039.025 0 0" style="fill:#0f181c;fill-rule:nonzero" transform="translate(8.2893 1.2191)scale(.222)"/><path d="M394.984 112.446c-.4-.023-.858-.349-1.415-.955.387.03.872.341 1.415.955" style="fill:#281e0d;fill-rule:nonzero" transform="translate(8.2893 1.2191)scale(.222)"/><path d="M491.999 276.999c-.114.395-.228.791-.342 1.187-.009-.315-.018-.63.159-1.065.186-.12.184-.121.183-.122" style="fill:#12191f;fill-rule:nonzero" transform="translate(8.2893 1.2191)scale(.222)"/><path d="M32.582 47.227c-.039.024.039-.024 0 0" style="fill:#0f181c;fill-rule:nonzero" transform="translate(8.2893 1.2191)scale(.222)"/><path d="M47.702 35.136c.046.346-.114.823-.527 1.363-.062-.368.13-.8.527-1.363" style="fill:#25180b;fill-rule:nonzero" transform="translate(8.2893 1.2191)scale(.222)"/><path d="M403.688 121.328c-.456-.039-.924-.406-1.464-1.064.436.052.944.394 1.464 1.064" style="fill:#281e0d;fill-rule:nonzero" transform="translate(8.2893 1.2191)scale(.222)"/><path d="M296.935 704.222c.234-.042.387.133.485.335.024.049-.131.185-.38.334-.176.053-.205-.442-.105-.669" style="fill:#8d4823;fill-rule:nonzero" transform="translate(8.2893 1.2191)scale(.222)"/><path d="M396.676 114.039c-.264.116-.618-.065-1.07-.541.261-.115.62.063 1.07.541" style="fill:#281e0d;fill-rule:nonzero" transform="translate(8.2893 1.2191)scale(.222)"/><path d="M116.757 41.032c-.233.094-.583-.106-1.074-.581.225-.088.591.099 1.074.581M74.688 52.98c-.249.194-.653.084-1.249-.283.237-.178.666-.099 1.249.283" style="fill:#25180b;fill-rule:nonzero" transform="translate(8.2893 1.2191)scale(.222)"/><path d="M75.001 49.41c.109-.323.417-.341.929-.085.196.13-.253.342-.253.342s-.485-.098-.676-.257" style="fill:#74461f;fill-rule:nonzero" transform="translate(8.2893 1.2191)scale(.222)"/><path d="M46.272 142.75c.262-.043.556.231.908.805-.254.037-.565-.225-.908-.805" style="fill:#25180b;fill-rule:nonzero" transform="translate(8.2893 1.2191)scale(.222)"/><path d="M393.422 95.952c.295-.055.572.163.821.655-.298.055-.568-.164-.821-.655M396.844 80.162c.138.227.025.579-.361 1.029-.145-.236-.017-.57.361-1.029" style="fill:#523b1d;fill-rule:nonzero" transform="translate(8.2893 1.2191)scale(.222)"/><path d="M84.165 121.852c-.102-.223.042-.554.454-.963.109.233-.049.545-.454.963M83.134 122.902c-.075-.213.098-.53.548-.915.084.225-.108.518-.548.915M136.882 76.796c-.02-.221.253-.484.808-.804.017.217-.25.49-.808.804M75.066 132.855c-.112-.229.038-.607.488-1.09.125.244-.051.593-.488 1.09" style="fill:#25180b;fill-rule:nonzero" transform="translate(8.2893 1.2191)scale(.222)"/><path d="M405.023 69.277c.116.267-.055.588-.5.983-.112-.259.05-.594.5-.983" style="fill:#523b1d;fill-rule:nonzero" transform="translate(8.2893 1.2191)scale(.222)"/><path d="M67.164 143.87c-.057-.19.118-.486.552-.856.066.201-.127.475-.552.856" style="fill:#25180b;fill-rule:nonzero" transform="translate(8.2893 1.2191)scale(.222)"/><path d="M59.16 469.242c.41-.035.483.239.17.667-.173-.075-.213-.246-.17-.667" style="fill:#8f4a21;fill-rule:nonzero" transform="translate(8.2893 1.2191)scale(.222)"/><path d="M140.819 64.984c-.224.058-.528-.149-.893-.633.23-.062.521.153.893.633M101.095 62.275c.264-.197.529-.035.754.516-.245.133-.482-.049-.754-.516" style="fill:#25180b;fill-rule:nonzero" transform="translate(8.2893 1.2191)scale(.222)"/><path d="M314.738 622.017c.243.096.244.338.078.741-.347-.048-.397-.3-.078-.741" style="fill:#8e4921;fill-rule:nonzero" transform="translate(8.2893 1.2191)scale(.222)"/><path d="M99.306 61.011c.233-.107.571.075 1.05.52-.221.098-.583-.067-1.05-.52M64.06 148.738c-.124-.227.03-.595.452-1.117.121.223-.027.599-.452 1.117M86.731 59.993c-.244.112-.6-.055-1.056-.514.248-.116.595.06 1.056.514" style="fill:#25180b;fill-rule:nonzero" transform="translate(8.2893 1.2191)scale(.222)"/><path d="M495.481 292.466c.04-.022-.041.021 0 0M179 59c-.395-.112-.79-.225-1.186-.338.316-.011.631-.021 1.066.153z" style="fill:#0d0a07;fill-rule:nonzero" transform="translate(8.2893 1.2191)scale(.222)"/><path d="M256.444 353.985c8.043 21.063 34.113 33.941 56.628 11.163 4.275-4.324 6.441-10.685 9.862-15.922 1.386-2.122 3.525-3.752 5.321-5.606.75 2.666 2.574 5.553 2.078 7.964-3.689 17.961-14.725 29.513-32.316 34.328-17.911 4.902-32.296-1.309-43.774-15.295-.732-.892-1.209-1.993-2.123-3.534-2.204 2.407-3.502 3.836-4.811 5.255-11.089 12.018-24.466 17.732-40.806 13.886-15.972-3.758-27.651-12.788-32.484-29.076-.875-2.95-.883-6.236-.796-9.353.033-1.168 1.478-2.296 2.279-3.442 1.12.8 2.663 1.359 3.281 2.445 1.801 3.167 3.082 6.628 4.838 9.825 6.961 12.672 17.762 20.006 32.156 20.243 15.128.249 24.184-9.396 31.208-22.348 3.634-4.51 4.814-4.514 9.459-.533" style="fill:#150d08;fill-rule:nonzero" transform="translate(8.2893 1.2191)scale(.222)"/><path d="M295.326 307.561c-.022.342-.044.683-.443 1.397-.481.719-.584 1.068-.687 1.416 0 0 .028.354-.327.678-.564 1.103-.774 1.882-1.088 2.994-5.182 6.622-9.438 13.883-15.503 19-13.454 11.352-26.186 15.235-43.433 6.546-9.331-4.701-15.841-12.362-21.85-20.95-3.355-7.541-5.358-14.867-4.132-22.95.473-3.111 1.043-4.438 4.154-2.285.344 3.142.703 5.86 1.048 8.926.626 1.134 1.265 1.922 1.915 3.073 1.526 2.206 2.704 4.578 4.617 5.785 5.024 3.167 10.157 6.36 15.644 8.543 5.825 2.318 11.253 5.938 18.358 4.724 9.979-1.706 18.02-7.101 26.306-12.102 9.232-5.572 12.667-14.364 10.306-25.451-.185-.328-.181-.53.289-.614 4.869 2.617 6.332 6.416 5.569 11.426-.494 3.244-.512 6.56-.743 9.844" style="fill:#080303;fill-rule:nonzero" transform="translate(8.2893 1.2191)scale(.222)"/><path d="M347.109 212.464s.29-.358.875-.426c2.08-.808 3.575-1.548 5.07-2.289.605-.083 1.209-.166 2.455-.06 1.54.061 2.439-.067 3.338-.196.772-.001 1.544-.002 2.803.361 1.08.694 1.673 1.025 2.513 1.575 1.482.638 2.717 1.057 3.953 1.475 0 0-.089.087-.05.395 1.693 1.756 3.348 3.202 5.002 4.649 0 0-.071.042-.031.386.348 1.848.657 3.352.95 4.785-3.043-.921-5.55-1.68-8.379-2.46-1.063-.446-1.802-.872-2.532-1.615-.642-1.222-1.164-2.754-1.969-2.922-2.763-.577-3.272 1.337-3.359 3.865-6.252 3.491-9.166 9.681-7.572 15.901 1.807 7.046 6.018 10.072 13.769 10.269.017.865.041 1.358-.325 1.847-1.752.056-3.115.118-4.479.18.053.341.107.681.16 1.022 1.565-.405 3.13-.809 5.097-1.239 1.031-1.226 1.661-2.427 2.413-3.911 1.592-1.971 3.061-3.658 4.945-5.277 1.312-.602 2.21-1.272 3.107-1.942-.988-.607-1.975-1.213-3.042-2.195-.006-1.133.066-1.891.556-2.647 3.585-.568 5.172 1.141 5.347 3.972.201 3.259.017 6.554-.18 9.822-.203 3.357-.625 6.702-.952 10.052-.048.494-.096.988-.608 1.919-.965 1.711-1.467 2.985-1.969 4.258-.246.802-.493 1.604-1.225 2.755-.897 1.333-1.309 2.318-1.722 3.303 0 0-.053-.082-.37-.036-1.066 1.069-1.816 2.092-2.566 3.115 0 0-.115-.13-.409-.084-3.12 1.747-5.946 3.448-8.771 5.15-2.025.024-4.05.048-6.655-.334-8.865-5.526-14.891-12.637-15.778-22.412-.87-9.593-2.488-19.513 2.342-28.798.726-1.397.7-3.184 1.021-4.791 0 0 .119.111.399.041 2.463-2.535 4.645-4.999 6.828-7.463m19.459 6.051s-.095.052 0 0" style="fill:#070704;fill-rule:nonzero" transform="translate(8.2893 1.2191)scale(.222)"/><path d="M136.045 212.436c.111-.127.221-.254.946-.427 2.08-.722 3.546-1.399 5.012-2.077 2.095-.071 4.19-.143 6.846.267 1.35.626 2.139.77 2.927.915 0 0 .146-.018.355.281.786.377 1.364.455 1.943.533.508.198 1.017.395 1.877 1.014.685.578 1.017.735 1.35.891.283.066.52.21.858.899.46.665.771.861 1.081 1.056 0 0-.207.128-.054.311.456.346.761.508 1.065.67 0 0-.007.164-.12.43-1.552 1.396-2.991 2.524-4.668 3.65-.238-.003-.57-.342-.638-.749-1.329-6.152-5.858-3.749-9.19-3.755-.587-.002-1.179 2.764-1.848 4.335-.08.083-.306.116-.678-.074-3.794-.708-2.899 1.76-3.018 3.501-.05-.061.082.025-.316-.011-1.775.945-3.893 1.636-4.408 2.954-3.022 7.733 2.593 18.488 10.733 21.302 5.058 2.819 9.392.686 9.44-4.464.82-.82 1.558-1.371 2.682-1.901 2.749-1.369 5.113-2.758 7.705-4.281.233.499 1.025 1.374.958 2.177-.683 8.125-.584 16.424-5.014 23.779-.708 1.175-1.006 2.598-1.493 3.906 0 0-.036.299-.506.408-1.241 1.109-2.01 2.109-2.78 3.109 0 0-.09-.084-.376-.025-.751.697-1.217 1.336-1.683 1.975 0 0-.223.233-.777.188-2.125.93-3.695 1.905-5.266 2.881-.613.117-1.226.233-2.651.175-1.83-.101-2.848-.026-3.866.049-.627-.006-1.254-.013-2.326-.449-2.082-1.17-3.719-1.911-5.355-2.651 0 0 .074-.17-.038-.357-.622-.433-1.133-.68-1.644-.927 0 0-.076.022-.108-.31-.461-.682-.89-1.032-1.318-1.381 0 0 .141-.182.05-.347-.397-.324-.704-.484-1.011-.643 0 0 .032-.221.063-.483-1.799-4.58-3.651-8.889-5.454-13.219-.911-2.19-1.733-4.417-2.596-6.627-.13-3.998-.261-7.996.03-12.59 1.244-4.03 2.068-7.463 2.892-10.895.025-.341.049-.682.573-1.303.879-1.295 1.259-2.311 1.64-3.326.073-.15.146-.3.72-.686 1.024-1.294 1.548-2.351 2.073-3.408 0 0 .006.148.296.034.448-.423.607-.731.765-1.039 0 0 .281.234.407.071.278-.479.429-.795.58-1.112 0 0 .088-.053.37.043 1.175-.699 2.069-1.493 2.963-2.287" style="fill:#090705;fill-rule:nonzero" transform="translate(8.2893 1.2191)scale(.222)"/><path d="M295.61 307.329c-.053-3.052-.035-6.368.459-9.612.763-5.01-.7-8.809-5.873-11.539-3.279-6.401-7.932-10.463-14.062-12.81-15.818-6.058-31.816-6.138-47.766-.701-8.045 2.742-14.449 7.504-16.381 16.793.038 1.38.041 2.452.043 3.523-3.124-1.729-3.694-.402-4.167 2.709-1.226 8.083.777 15.409 3.894 22.94-.251.378-.729.374-.729.374-3.7-7.299-7.004-14.656-6.974-23.146.047-13.411 6.918-24.376 19.48-29.071 17.913-6.696 36.162-7.126 54.2-.587 17.345 6.288 25.468 25.109 17.876 41.127" style="fill:#211913;fill-rule:nonzero" transform="translate(8.2893 1.2191)scale(.222)"/><path d="M211.015 319.389c.013-.383.491-.379.73-.369 6.259 8.21 12.769 15.871 22.1 20.572 17.247 8.689 29.979 4.806 43.433-6.546 6.065-5.117 10.321-12.378 15.744-18.949.345-.283.833-.236.833-.236-2.326 5.536-3.832 11.632-7.148 16.493-6.934 10.163-16.295 17.769-28.075 22.042-.578.21-.999.85-1.841 1.439-4.992-3.831-6.172-3.827-9.646.361-4.65-2.354-9.124-4.767-13.435-7.443-10.487-6.51-18.695-14.995-22.695-27.364" style="fill:#884924;fill-rule:nonzero" transform="translate(8.2893 1.2191)scale(.222)"/><path d="M160.673 267.39c.192-1.13.49-2.553 1.198-3.728 4.43-7.355 4.331-15.654 5.014-23.779.067-.803-.725-1.678-.958-2.177-2.592 1.523-4.956 2.912-7.594 3.926.629-4.77 1.534-9.166 2.608-13.713-.04-.465-.249-.778-.698-1.261-1.674-2.049-3.109-3.927-4.543-5.806 1.44-1.129 2.879-2.257 4.457-3.731 8.269 8.659 9.55 19.707 7.884 30.829-.993 6.625-4.627 12.854-7.368 19.44m4.86-34.546c-.07.397-.141.793-.211 1.19.168-.302.335-.603.211-1.19m-3.026-10.429s.057.105 0 0" style="fill:#211e1a;fill-rule:nonzero" transform="translate(8.2893 1.2191)scale(.222)"/><path d="M365.931 220.68c2.506.759 5.013 1.518 8.056 2.439-.293-1.433-.602-2.937-.921-4.814 1.863 3.712 4.443 7.63 5.46 11.918 1.997 8.413 1.887 16.961-1.626 25.421.019-3.153.441-6.498.644-9.855.197-3.268.381-6.563.18-9.822-.175-2.831-1.762-4.54-5.506-4.311-2.481-3.886-4.384-7.431-6.287-10.976m9.089 5.105c.114.442.228.883.343 1.325.186-.075.373-.15.56-.226-.273-.528-.545-1.055-.903-1.099" style="fill:#1f1b17;fill-rule:nonzero" transform="translate(8.2893 1.2191)scale(.222)"/><path d="M339.569 220.018c-.008 1.475.018 3.262-.708 4.659-4.83 9.285-3.212 19.205-2.342 28.798.887 9.775 6.913 16.886 15.353 22.319-8.188-1.364-12.192-7.722-14.757-14.757-5.032-13.798-5.158-27.605 2.454-41.019" style="fill:#30200c;fill-rule:nonzero" transform="translate(8.2893 1.2191)scale(.222)"/><path d="M122.597 249.312c1.002 1.832 1.824 4.059 2.735 6.249 1.803 4.33 3.655 8.639 5.42 13.325-5.342-5.088-7.133-12.01-8.155-19.574M125.384 225.679c-.55 3.202-1.374 6.635-2.491 10.221.543-3.228 1.38-6.61 2.491-10.221" style="fill:#211e1a;fill-rule:nonzero" transform="translate(8.2893 1.2191)scale(.222)"/><path d="M346.779 212.439c-1.853 2.489-4.035 4.953-6.56 7.435 1.849-2.475 4.04-4.967 6.56-7.435M359.223 276.346c2.554-1.827 5.38-3.528 8.568-5.222-2.523 1.787-5.41 3.567-8.568 5.222" style="fill:#30200c;fill-rule:nonzero" transform="translate(8.2893 1.2191)scale(.222)"/><path d="M373.027 217.612c-1.613-1.111-3.268-2.557-4.932-4.367 1.624 1.102 3.257 2.567 4.932 4.367" style="fill:#1f1b17;fill-rule:nonzero" transform="translate(8.2893 1.2191)scale(.222)"/><path d="M149.241 276.225c1.32-1.097 2.89-2.072 4.854-2.989-1.272 1.076-2.937 2.093-4.854 2.989" style="fill:#211e1a;fill-rule:nonzero" transform="translate(8.2893 1.2191)scale(.222)"/><path d="M352.784 209.607c-1.225.883-2.72 1.623-4.594 2.328 1.189-.847 2.757-1.658 4.594-2.328" style="fill:#30200c;fill-rule:nonzero" transform="translate(8.2893 1.2191)scale(.222)"/><path d="M134.897 273.519c1.531.449 3.168 1.19 4.957 2.241-1.517-.443-3.185-1.197-4.957-2.241M141.763 209.797c-1.226.813-2.692 1.49-4.539 2.116 1.18-.784 2.739-1.518 4.539-2.116" style="fill:#211e1a;fill-rule:nonzero" transform="translate(8.2893 1.2191)scale(.222)"/><path d="M374.242 261.794c.275-1.049.777-2.323 1.526-3.727-.269 1.08-.785 2.291-1.526 3.727M367.994 212.608c-1.114-.122-2.349-.541-3.808-1.396-.223-.436-.236-.869-.236-.869 1.307.656 2.615 1.312 4.044 2.265" style="fill:#1f1b17;fill-rule:nonzero" transform="translate(8.2893 1.2191)scale(.222)"/><path d="M157.403 271.003c.459-.918 1.228-1.918 2.349-2.936-.446.939-1.242 1.897-2.349 2.936" style="fill:#211e1a;fill-rule:nonzero" transform="translate(8.2893 1.2191)scale(.222)"/><path d="M368.447 271.083c.435-.951 1.185-1.974 2.286-3.008-.423.971-1.197 1.954-2.286 3.008" style="fill:#30200c;fill-rule:nonzero" transform="translate(8.2893 1.2191)scale(.222)"/><path d="M130.385 216.853c-.246.93-.77 1.987-1.599 3.124.237-.946.778-1.971 1.599-3.124M135.741 212.406c-.59.824-1.484 1.618-2.71 2.327.58-.843 1.493-1.6 2.71-2.327M142.668 276.549c.823-.296 1.841-.371 3.362-.33-.721.261-1.944.406-3.362.33M151.641 210.881c-.653.088-1.442-.056-2.402-.446.641-.093 1.454.06 2.402.446" style="fill:#211e1a;fill-rule:nonzero" transform="translate(8.2893 1.2191)scale(.222)"/><path d="M358.704 209.25c-.756.372-1.655.5-2.894.501.69-.333 1.721-.539 2.894-.501" style="fill:#30200c;fill-rule:nonzero" transform="translate(8.2893 1.2191)scale(.222)"/><path d="M127.572 220.945c-.082.89-.462 1.906-1.19 2.989.066-.909.478-1.886 1.19-2.989" style="fill:#211e1a;fill-rule:nonzero" transform="translate(8.2893 1.2191)scale(.222)"/><path d="M371.359 267.941c.122-.85.534-1.835 1.29-2.881-.104.875-.552 1.811-1.29 2.881M363.774 210.095c.176.248.189.681.165.898-.616-.114-1.209-.445-1.922-1.004.446-.199 1.014-.17 1.757.106" style="fill:#30200c;fill-rule:nonzero" transform="translate(8.2893 1.2191)scale(.222)"/><path d="M155.338 272.995c.161-.599.627-1.238 1.42-1.891-.153.608-.634 1.229-1.42 1.891" style="fill:#211e1a;fill-rule:nonzero" transform="translate(8.2893 1.2191)scale(.222)"/><path d="M293.913 313.507c-.058.354-.546.307-.786.256-.032-.829.178-1.608.64-2.566.236.532.22 1.244.146 2.31" style="fill:#211913;fill-rule:nonzero" transform="translate(8.2893 1.2191)scale(.222)"/><path d="M153.863 211.73c-.368.12-.946.042-1.72-.262.373-.13.941-.034 1.72.262M133.202 272.227c.419-.036.93.211 1.539.736-.416.035-.932-.209-1.539-.736M131.734 270.539c.378.063.807.413 1.279 1.056-.381-.06-.805-.415-1.279-1.056M160.187 216.51c-.24.097-.545-.065-.91-.491.241-.098.543.067.91.491M159.163 215.523c-.233.07-.544-.126-.906-.605.242-.075.535.132.906.605M157.188 213.563c-.22.114-.552-.043-1.021-.447.213-.106.56.035 1.021.447M132.458 214.755c.103.242-.048.558-.471.928-.109-.25.054-.552.471-.928M131.474 215.794c.093.235-.066.543-.496.894-.099-.245.073-.532.496-.894M130.79 269.515c.24-.093.547.067.897.496-.248.099-.539-.073-.897-.496" style="fill:#211e1a;fill-rule:nonzero" transform="translate(8.2893 1.2191)scale(.222)"/><path d="M294.439 310.227c-.14-.201-.037-.55.3-1.051.137.199.04.551-.3 1.051" style="fill:#211913;fill-rule:nonzero" transform="translate(8.2893 1.2191)scale(.222)"/><path d="M69.808 49.154c.265.84.146 1.595.006 2.733-1.347.326-2.673.269-4.395.153 1.071-1.03 2.538-2 4.389-2.886" style="fill:#74461f;fill-rule:nonzero" transform="translate(8.2893 1.2191)scale(.222)"/><path d="M212.017 293.407c.011-1.495.008-2.567.321-4.03 3.654-2.777 6.68-5.944 10.381-7.422 21.946-8.765 43.54-9.584 64.148 4.096.946.628 2.284.665 3.439.977 2.266 10.964-1.169 19.756-10.401 25.328-8.286 5.001-16.327 10.396-26.306 12.102-7.105 1.214-12.533-2.406-18.358-4.724-5.487-2.183-10.62-5.376-15.644-8.543-1.913-1.207-3.091-3.579-4.613-6.135-.641-1.5-1.273-2.286-1.906-3.071-.358-2.718-.717-5.436-1.061-8.578" style="fill:#231f1f;fill-rule:nonzero" transform="translate(8.2893 1.2191)scale(.222)"/><path d="M290.211 286.905c-1.06-.189-2.398-.226-3.344-.854-20.608-13.68-42.202-12.861-64.148-4.096-3.701 1.478-6.727 4.645-10.416 7.114 1.616-8.898 8.02-13.66 16.065-16.402 15.95-5.437 31.948-5.357 47.766.701 6.13 2.347 10.783 6.409 13.692 12.693.204.314.2.516.385.844" style="fill:#e0dee0;fill-rule:nonzero" transform="translate(8.2893 1.2191)scale(.222)"/><path d="M213.065 302.333c.646.437 1.278 1.223 1.907 2.359-.642-.437-1.281-1.225-1.907-2.359" style="fill:#211913;fill-rule:nonzero" transform="translate(8.2893 1.2191)scale(.222)"/><path d="M365.608 220.659c2.226 3.566 4.129 7.111 6.192 10.995.087 1.097.015 1.855-.139 3.333-.16 1.721-.24 2.722-.319 3.723-1.47 1.688-2.939 3.375-4.863 5.337-1.145.762-1.837 1.251-2.529 1.739-7.756.174-11.967-2.852-13.774-9.898-1.594-6.22 1.32-12.41 7.998-15.847 2.06-.379 3.477-.53 4.893-.68.739.426 1.478.852 2.541 1.298" style="fill:#edeeee;fill-rule:nonzero" transform="translate(8.2893 1.2191)scale(.222)"/><path d="M363.076 219.044c-1.425.467-2.842.618-4.684.716-.557-2.301-.048-4.215 2.715-3.638.805.168 1.327 1.7 1.969 2.922M371.756 238.779c-.335-1.07-.255-2.071-.016-3.417 1.148.262 2.135.868 3.123 1.475-.897.67-1.795 1.34-3.107 1.942M363.945 246.157c.697-.859 1.389-1.348 2.412-1.827-.298 1.21-.928 2.411-1.957 3.641-.4.03-.391.038-.391.038-.023-.494-.047-.987-.064-1.852M363.998 247.996c-1.567.401-3.132.805-4.697 1.21-.053-.341-.107-.681-.16-1.022 1.364-.062 2.727-.124 4.479-.18.389.005.38-.003.378-.008M366.521 218.541c-.048.026.047-.026 0 0" style="fill:#1f1b17;fill-rule:nonzero" transform="translate(8.2893 1.2191)scale(.222)"/><path d="M155.463 220.849c1.671 1.882 3.106 3.76 4.745 6.145.325.697.444.887.564 1.077-.905 4.395-1.81 8.791-2.825 13.54-.849.906-1.587 1.457-2.743 2.303-1.356.859-2.294 1.422-3.627 1.925-1.455.011-2.515.082-3.793-.102-9.366-5.032-11.336-10.72-7.611-21.605 0 0-.132-.086.218-.103 1.263-1.088 2.177-2.161 3.09-3.233 0 0 .226-.033.664-.149 3.875-.123 7.311-.132 10.748-.14 0 0 .332.339.57.342" style="fill:#eeeeef;fill-rule:nonzero" transform="translate(8.2893 1.2191)scale(.222)"/><path d="M139.775 224.096c-3.327 10.921-1.357 16.609 7.864 21.892-.502 1.012-1.077 1.516-1.647 2.017.005-.003.015-.014.015-.014-8.047-2.453-13.662-13.208-10.64-20.941.515-1.318 2.633-2.009 4.408-2.954M154.825 220.1c-3.369.415-6.805.424-10.6.465.231-1.456.823-4.222 1.41-4.22 3.332.006 7.861-2.397 9.19 3.755" style="fill:#211e1a;fill-rule:nonzero" transform="translate(8.2893 1.2191)scale(.222)"/><path d="M151.973 245.9c.937-.564 1.875-1.127 3.149-1.718.37 4.856-3.964 6.989-9.022 4.17-.093-.361-.103-.35.305-.344 2.127-.699 3.847-1.404 5.568-2.108M143.109 220.606c-.541 1.262-1.455 2.335-2.668 3.484-.231-1.724-1.126-4.192 2.668-3.484" style="fill:#211e1a;fill-rule:nonzero" transform="translate(8.2893 1.2191)scale(.222)"/><path d="M165.679 232.987c-.022.444-.189.745-.357 1.047.07-.397.141-.793.357-1.047M162.536 222.467c.028.053-.029-.052 0 0M160.941 227.919c-.289-.038-.408-.228-.493-.755.244-.023.453.29.493.755" style="fill:#090705;fill-rule:nonzero" transform="translate(8.2893 1.2191)scale(.222)"/><path d="M375.063 225.543c.315.286.587.813.86 1.341-.187.076-.374.151-.56.226-.115-.442-.229-.883-.3-1.567" style="fill:#070704;fill-rule:nonzero" transform="translate(8.2893 1.2191)scale(.222)"/><path d="M151.577 245.839c-1.325.765-3.045 1.47-5.178 2.172.163-.507.738-1.011 1.458-1.767 1.205-.323 2.265-.394 3.72-.405" style="fill:#090705;fill-rule:nonzero" transform="translate(8.2893 1.2191)scale(.222)"/></svg>